<svg id="Слой_2" data-name="Слой 2" xmlns="http://www.w3.org/2000/svg" viewBox="0 0 998.88 500"><title>EN</title><path d="M342,374.6a8.15,8.15,0,0,1,3.41,3.42,11.33,11.33,0,0,1,1.22,5.46v11.67h-4.94V390H332v5.12H327.1V383.47a11.33,11.33,0,0,1,1.22-5.46,8.13,8.13,0,0,1,3.41-3.42,12.06,12.06,0,0,1,10.3,0Zm-.3,11.46v-3a5.56,5.56,0,0,0-1.31-4,5.38,5.38,0,0,0-7.15,0,5.59,5.59,0,0,0-1.29,4v3Z" transform="translate(-0.56)" style="fill:#0E243B"/><path d="M351.55,373.81h9.69a13.62,13.62,0,0,1,6.14,1.33,9.93,9.93,0,0,1,4.15,3.73,11.38,11.38,0,0,1,0,11.22,9.92,9.92,0,0,1-4.15,3.74,13.62,13.62,0,0,1-6.14,1.33h-9.69ZM361,391.09a7.17,7.17,0,0,0,5.11-1.78,7.08,7.08,0,0,0,0-9.66,7.17,7.17,0,0,0-5.11-1.78h-4.51v13.23Z" transform="translate(-0.56)" style="fill:#0E243B"/><path d="M397.25,373.81,388,395.15h-4.88l-9.21-21.34h5.34l6.49,15.24,6.59-15.24Z" transform="translate(-0.56)" style="fill:#0E243B"/><path d="M403.82,394.08a10.63,10.63,0,0,1-4.18-3.95,11.35,11.35,0,0,1,0-11.31,10.65,10.65,0,0,1,4.18-3.95,13.22,13.22,0,0,1,12,0,10.88,10.88,0,0,1,0,19.2,13.2,13.2,0,0,1-12,0Zm9.4-3.64a6.25,6.25,0,0,0,2.39-2.42,7.63,7.63,0,0,0,0-7.07,6.25,6.25,0,0,0-2.39-2.42,7.14,7.14,0,0,0-6.83,0,6.25,6.25,0,0,0-2.39,2.42,7.63,7.63,0,0,0,0,7.07,6.25,6.25,0,0,0,2.39,2.42,7.16,7.16,0,0,0,6.83,0Z" transform="translate(-0.56)" style="fill:#0E243B"/><path d="M429.51,394.1a10.61,10.61,0,0,1-4.14-3.93,11.47,11.47,0,0,1,0-11.37,10.59,10.59,0,0,1,4.14-3.93,13.24,13.24,0,0,1,10.94-.44,10.06,10.06,0,0,1,3.77,2.8L441,380.15a6.81,6.81,0,0,0-5.36-2.5,7.13,7.13,0,0,0-3.54.87,6.19,6.19,0,0,0-2.42,2.42,7.63,7.63,0,0,0,0,7.07,6.19,6.19,0,0,0,2.42,2.42,7.15,7.15,0,0,0,3.54.87,6.77,6.77,0,0,0,5.36-2.53l3.17,2.93a9.89,9.89,0,0,1-3.78,2.83,12.55,12.55,0,0,1-5,1A12.27,12.27,0,0,1,429.51,394.1Z" transform="translate(-0.56)" style="fill:#0E243B"/><path d="M462.3,374.6a8.15,8.15,0,0,1,3.41,3.42,11.33,11.33,0,0,1,1.22,5.46v11.67H462V390h-9.75v5.12h-4.88V383.47a11.33,11.33,0,0,1,1.22-5.46A8.13,8.13,0,0,1,452,374.6a12.06,12.06,0,0,1,10.3,0Zm-.3,11.46v-3a5.56,5.56,0,0,0-1.31-4,5.38,5.38,0,0,0-7.15,0,5.59,5.59,0,0,0-1.29,4v3Z" transform="translate(-0.56)" style="fill:#0E243B"/><path d="M487.35,379.78a16.34,16.34,0,0,0-5.88-2v17.41h-4.94V377.74a16.64,16.64,0,0,0-5.92,2l-1.68-3.69a18.26,18.26,0,0,1,4.76-2,20.77,20.77,0,0,1,5.27-.67,21.06,21.06,0,0,1,5.32.67,17.74,17.74,0,0,1,4.74,2Z" transform="translate(-0.56)" style="fill:#0E243B"/><path d="M508.7,393.32a12,12,0,0,1-3.83,1.61,20,20,0,0,1-4.89.58,16.42,16.42,0,0,1-5.49-.81,7.46,7.46,0,0,1-3.41-2.26,5.14,5.14,0,0,1-1.16-3.31,5,5,0,0,1,.94-3,5.61,5.61,0,0,1,2.59-1.95,4.86,4.86,0,0,1-1.94-1.83,5,5,0,0,1-.69-2.59,5.19,5.19,0,0,1,1.07-3.17,7.2,7.2,0,0,1,3.23-2.29,14.56,14.56,0,0,1,5.3-.85,19.89,19.89,0,0,1,4.06.41,15,15,0,0,1,3.44,1.11l-1.37,3.78a13.88,13.88,0,0,0-5.95-1.31,7.16,7.16,0,0,0-3.58.72,2.18,2.18,0,0,0-1.2,1.94,2,2,0,0,0,.81,1.72,4.14,4.14,0,0,0,2.45.59h5.82v3.9h-6.13a5.35,5.35,0,0,0-2.86.64,2.07,2.07,0,0,0-1,1.86,2.21,2.21,0,0,0,1.3,2,8.53,8.53,0,0,0,4,.72A14.54,14.54,0,0,0,504,391a10.09,10.09,0,0,0,3.2-1.42Z" transform="translate(-0.56)" style="fill:#0E243B"/><path d="M513.71,394.83a11.51,11.51,0,0,1-3.79-1.78l1.68-3.72a11.38,11.38,0,0,0,3.26,1.61,12.2,12.2,0,0,0,3.78.61,6,6,0,0,0,3.11-.62,1.89,1.89,0,0,0,1-1.66,1.59,1.59,0,0,0-.59-1.26,4.48,4.48,0,0,0-1.52-.81q-.93-.31-2.51-.67a34.59,34.59,0,0,1-4-1.16,6.46,6.46,0,0,1-2.67-1.86,5,5,0,0,1-1.11-3.41,5.94,5.94,0,0,1,1-3.37,6.77,6.77,0,0,1,3-2.39,12.38,12.38,0,0,1,5-.88,16.41,16.41,0,0,1,4,.49,11.79,11.79,0,0,1,3.41,1.4l-1.52,3.75a11.91,11.91,0,0,0-5.91-1.68,5.55,5.55,0,0,0-3.06.67,2,2,0,0,0-1,1.77,1.73,1.73,0,0,0,1.14,1.63,18.12,18.12,0,0,0,3.49,1.05,35,35,0,0,1,4,1.16,6.64,6.64,0,0,1,2.67,1.83,4.9,4.9,0,0,1,1.11,3.38,5.83,5.83,0,0,1-1,3.34,6.87,6.87,0,0,1-3.06,2.39,12.49,12.49,0,0,1-5,.88A17.51,17.51,0,0,1,513.71,394.83Z" transform="translate(-0.56)" style="fill:#0E243B"/><path d="M558.2,386a5.34,5.34,0,0,1,1,3.34,4.93,4.93,0,0,1-2.18,4.31,11.14,11.14,0,0,1-6.35,1.51h-11V373.81h10.43a10.2,10.2,0,0,1,6,1.49,4.72,4.72,0,0,1,2.09,4.05,5.13,5.13,0,0,1-2.83,4.7A5.62,5.62,0,0,1,558.2,386Zm-13.63-8.46v5h4.91a5,5,0,0,0,2.77-.64,2.14,2.14,0,0,0,.94-1.89,2.1,2.1,0,0,0-.94-1.87,5.06,5.06,0,0,0-2.77-.62Zm8.7,13.26a2.2,2.2,0,0,0,1-2q0-2.65-3.93-2.65h-5.76v5.28h5.76A5.48,5.48,0,0,0,553.27,390.79Z" transform="translate(-0.56)" style="fill:#0E243B"/><path d="M582.07,373.81v21.34h-4.79v-2.59a7.54,7.54,0,0,1-6.46,3,7.46,7.46,0,0,1-5.9-2.39q-2.12-2.39-2.12-6.81v-12.5h4.94v12.34a5.48,5.48,0,0,0,1.2,3.86,4.25,4.25,0,0,0,3.28,1.29,4.73,4.73,0,0,0,3.56-1.39,5.68,5.68,0,0,0,1.34-4.1v-12Z" transform="translate(-0.56)" style="fill:#0E243B"/><path d="M600.72,395.15l-4.12-5.95h-4.54v5.95h-4.94V373.81h9.24a11.86,11.86,0,0,1,4.92.94,7.07,7.07,0,0,1,4.34,6.8,7,7,0,0,1-4.39,6.74l4.78,6.86Zm-1.25-16.36a5.19,5.19,0,0,0-3.38-1h-4v7.44h4a5.12,5.12,0,0,0,3.38-1,3.84,3.84,0,0,0,0-5.5Z" transform="translate(-0.56)" style="fill:#0E243B"/><path d="M627,393.32a12,12,0,0,1-3.83,1.61,20,20,0,0,1-4.89.58,16.42,16.42,0,0,1-5.49-.81,7.46,7.46,0,0,1-3.41-2.26,5.14,5.14,0,0,1-1.16-3.31,5,5,0,0,1,.94-3,5.61,5.61,0,0,1,2.59-1.95,4.86,4.86,0,0,1-1.94-1.83,5,5,0,0,1-.69-2.59,5.19,5.19,0,0,1,1.07-3.17,7.2,7.2,0,0,1,3.23-2.29,14.56,14.56,0,0,1,5.3-.85,19.89,19.89,0,0,1,4.06.41,15,15,0,0,1,3.44,1.11l-1.37,3.78a13.88,13.88,0,0,0-5.95-1.31,7.16,7.16,0,0,0-3.58.72,2.18,2.18,0,0,0-1.2,1.94,2,2,0,0,0,.81,1.72,4.14,4.14,0,0,0,2.45.59h5.82v3.9h-6.13a5.35,5.35,0,0,0-2.86.64,2.07,2.07,0,0,0-1,1.86,2.21,2.21,0,0,0,1.3,2,8.53,8.53,0,0,0,4,.72,14.54,14.54,0,0,0,3.78-.5,10.09,10.09,0,0,0,3.2-1.42Z" transform="translate(-0.56)" style="fill:#0E243B"/><path d="M644.62,374.6A8.15,8.15,0,0,1,648,378a11.33,11.33,0,0,1,1.22,5.46v11.67h-4.94V390h-9.75v5.12h-4.88V383.47a11.33,11.33,0,0,1,1.22-5.46,8.13,8.13,0,0,1,3.41-3.42,12.06,12.06,0,0,1,10.3,0Zm-.3,11.46v-3a5.56,5.56,0,0,0-1.31-4,5.38,5.38,0,0,0-7.15,0,5.59,5.59,0,0,0-1.29,4v3Z" transform="translate(-0.56)" style="fill:#0E243B"/><path d="M673.22,373.81v21.34h-4.79v-2.59a7.55,7.55,0,0,1-6.46,3,7.46,7.46,0,0,1-5.9-2.39q-2.12-2.39-2.12-6.81v-12.5h4.94v12.34a5.48,5.48,0,0,0,1.2,3.86,4.25,4.25,0,0,0,3.28,1.29,4.73,4.73,0,0,0,3.56-1.39,5.67,5.67,0,0,0,1.35-4.1v-12Z" transform="translate(-0.56)" style="fill:#0E243B"/><polygon points="840.77 25.54 840.77 167.21 812.45 167.21 812.45 51.4 622.98 29.03 499.47 71.4 498.95 71.25 375.9 29.03 186.43 51.4 186.43 167.21 158.12 167.21 158.12 25.54 159.45 25.39 379.03 0 499.47 40.11 619.85 0 620.21 0.05 840.77 25.54"/><path d="M841.56,315.14v50.42l-.41.41C755.54,453.53,644,497.38,500,500c-144-2.62-255.59-46.47-341.15-134l-.41-.41V315.14h28.47v40.78C268,432.76,370.44,471.69,500,475c129.51-3.33,231.95-42.27,313-119.1V315.14Z" transform="translate(-0.56)" style="fill:#0E243B"/><polygon points="739.54 126.44 739.49 129.31 499.44 132.54 259.34 129.31 259.34 126.44 499.44 121.1 739.54 126.44"/><polygon points="634.32 142.18 499.52 149.16 364.57 142.18 364.62 139.26 499.47 137.62 634.26 139.26 634.32 142.18"/><polygon points="508.29 104.74 499.47 118.13 490.59 104.74 499.47 84.48 508.29 104.74"/><polygon points="644.88 347.05 644.83 349.97 354.1 349.97 354 347.05 499.37 337.92 644.88 347.05"/><path d="M.56,184.14l.66-.58q15.21.66,23.69.66,9.39,0,25.35-.58,5.9-.17,8.56-.17,21,0,28.51,7.65a25,25,0,0,1,7.48,18.12A28.44,28.44,0,0,1,91.15,223a32.58,32.58,0,0,1-10.8,11.51q-7.15,4.78-19.7,7.19Q63,244.89,69,252.87l11.8,15.62q5.73,7.73,12.3,16.33t8.48,9.72a10.53,10.53,0,0,0,3.28,1.37,27.25,27.25,0,0,0,4.37.25l.66.67v3.9l-.75.75a77.49,77.49,0,0,0-9.47-.5q-5.9,0-12.88.5-5.73-7-18-24.18-14.29-19.95-29.25-37l.83-2.58q4.32.25,6.73.25,14.38,0,22.52-6.9T77.77,212q0-11-7.31-16.58t-19.78-5.61a55,55,0,0,0-16.45,2.41Q33,194,33,223.37v38.48l.08,16.2a112.25,112.25,0,0,0,.5,12.13,7.72,7.72,0,0,0,1.2,3.66,6.23,6.23,0,0,0,3,1.54q2.24.62,11.05,1l.67.5V301l-.67.66q-.42,0-14.63-.5Q28.31,301,25,301q-2.58,0-23.77.66L.56,301v-4.15l.66-.5a86.14,86.14,0,0,0,10.31-.83A7.62,7.62,0,0,0,15,294.22a6.53,6.53,0,0,0,1.41-3.37A76.36,76.36,0,0,0,17,279.38l.08-17.53V223.37l-.17-16.21q-.08-9.47-.46-12.22a7.53,7.53,0,0,0-1.16-3.66,6,6,0,0,0-3-1.5q-2.25-.58-11.05-.91l-.66-.58Z" transform="translate(-0.56)" style="fill:#0E243B"/><path d="M115.66,183.56l10.39.33q10.22.33,13.38.33,2.83,0,23.85-.66l.66.58v4.15l-.66.58q-5.74.17-8.85.5a10.75,10.75,0,0,0-4.53,1.24q-1.41.92-1.87,4.28a73.45,73.45,0,0,0-.46,9.35l-.17,19.11v38.48l.08,16.2a112.5,112.5,0,0,0,.5,12.13,7.78,7.78,0,0,0,1.2,3.66,6.23,6.23,0,0,0,3,1.54q2.24.62,11.05,1l.66.5V301l-.66.66q-.42,0-14.63-.5-5.9-.17-9.23-.17-2.58,0-23.77.66L115,301v-4.15l.67-.5A86.19,86.19,0,0,0,126,295.5a7.63,7.63,0,0,0,3.45-1.29,6.53,6.53,0,0,0,1.41-3.37,77.08,77.08,0,0,0,.62-11.47l.08-17.53V223.37l-.17-16.21q-.08-9.47-.46-12.22a7.55,7.55,0,0,0-1.16-3.66,6,6,0,0,0-3-1.5q-2.24-.58-11.05-.91l-.67-.58v-4.15Z" transform="translate(-0.56)" style="fill:#0E243B"/><path d="M292.6,255.7v2.49l-.33,1-4.07,2.41a5.16,5.16,0,0,0-1.75,1.41,28.64,28.64,0,0,0-.62,4.95q-.37,4.44-.37,10.84a146.77,146.77,0,0,0,.91,15.71l-.5.83a129.76,129.76,0,0,1-46.79,8.73,77.47,77.47,0,0,1-33.33-7,55.18,55.18,0,0,1-23.6-20.69q-8.73-13.71-8.73-32.58,0-28.75,19.66-45.71t51.32-17q23.27,0,41.81,7.89l.58.91q-1.5,5.57-3.49,23.35l-.66.58H278.8l-.66-.67-.42-8.81a27.25,27.25,0,0,0-.54-5.07,5.85,5.85,0,0,0-1.79-2q-1.5-1.21-7.69-3.82a62.29,62.29,0,0,0-12.42-3.82,70.63,70.63,0,0,0-13.38-1.2q-15.21,0-26.93,6.32a40.85,40.85,0,0,0-17.66,18.41,60.12,60.12,0,0,0-5.94,26.89,64.28,64.28,0,0,0,6.4,28.46,48.52,48.52,0,0,0,18.37,20.57q12,7.4,27.84,7.4a75.11,75.11,0,0,0,14.09-1.37,41.93,41.93,0,0,0,11.84-3.86q.75-2.66.75-10.72V271.4q0-6.57-.83-8.19t-4.11-2.28q-3.28-.66-14.17-.83l-.75-.75V255.7l.75-.75,5.07.17q13,.42,21.28.42,4.74,0,13.88-.5Z" transform="translate(-0.56)" style="fill:#0E243B"/><path d="M302.91,183.56q21.19.66,23.77.66,2.74,0,23.85-.66l.66.58v4.15l-.66.58q-5.74.17-8.85.5a10.75,10.75,0,0,0-4.53,1.24q-1.41.92-1.87,4.28a73.45,73.45,0,0,0-.46,9.35l-.17,19.11V235q18.2.5,34.49.5,22.27,0,33.91-.5V223.37l-.17-16.21a113.68,113.68,0,0,0-.5-12.22,8.21,8.21,0,0,0-1.16-3.66,5.75,5.75,0,0,0-3-1.5q-2.24-.58-11.14-.91l-.58-.58v-4.15l.58-.58q21.27.66,23.85.66,2.83,0,23.85-.66l.66.58v4.15l-.66.58q-5.82.17-8.93.5a10.75,10.75,0,0,0-4.53,1.24q-1.41.92-1.83,4.28a91,91,0,0,0-.5,9.35l-.17,19.11v38.48l.17,16.2a112.5,112.5,0,0,0,.5,12.13,7.78,7.78,0,0,0,1.2,3.66,6.18,6.18,0,0,0,3,1.54q2.2.62,11.1,1l.66.5V301l-.66.66q-21.28-.66-23.85-.66t-23.85.66l-.58-.66v-4.15l.58-.5a87,87,0,0,0,10.39-.83,7.27,7.27,0,0,0,3.41-1.29,7,7,0,0,0,1.41-3.37q.58-2.58.58-11.47l.17-17.53V242.9q-24.6-.5-34.49-.5-10.14,0-33.91.5v18.95l.08,16.2a112.5,112.5,0,0,0,.5,12.13,7.78,7.78,0,0,0,1.2,3.66,6.23,6.23,0,0,0,3,1.54q2.24.62,11.05,1l.66.5V301l-.66.66q-21.19-.66-23.85-.66t-23.77.66l-.67-.66v-4.15l.67-.5a86.19,86.19,0,0,0,10.31-.83,7.63,7.63,0,0,0,3.45-1.29,6.53,6.53,0,0,0,1.41-3.37,77.08,77.08,0,0,0,.62-11.47l.08-17.53V223.37l-.17-16.21q-.08-9.47-.46-12.22a7.55,7.55,0,0,0-1.16-3.66,6,6,0,0,0-3-1.5q-2.24-.58-11.05-.91l-.67-.58v-4.15Z" transform="translate(-0.56)" style="fill:#0E243B"/><path d="M539.93,183.56l.75.75q-.75,7.48-.75,26.09l-.67.67h-3.9l-.67-.75-.92-7.65a70.3,70.3,0,0,0-1-7.52,3.55,3.55,0,0,0-1.21-2q-.83-.62-5.4-1t-10.22-.42H500.21q-.67,18.78-.67,21.69v48.45l.17,16.2q.08,9.4.46,12.18a7.3,7.3,0,0,0,1.16,3.66,6.52,6.52,0,0,0,3,1.5q2.24.62,11.14,1l.58.5V301l-.58.66q-21.27-.66-23.77-.66-2.66,0-23.69.66l-.67-.66v-4.15l.67-.5a85.41,85.41,0,0,0,10.35-.83,7.55,7.55,0,0,0,3.41-1.29,6.73,6.73,0,0,0,1.45-3.37q.58-2.58.58-11.47l.17-17.53V213.39q0-1.33-.67-21.69H471q-7.65,0-13.21.33t-6.44,1.7q-.87,1.37-1.62,8.93l-.83,7.65-.75.75h-3.82l-.66-.67q-.17-20-.75-26.09l.75-.75q14.46.66,48.12.66Q526.05,184.22,539.93,183.56Z" transform="translate(-0.56)" style="fill:#0E243B"/><path d="M550,184.14l.67-.58q28.51.5,36.49.5,27.26,0,48.53-.5l.42.58q-2.07,8-3.08,25l-.5.67h-4.07l-.75-.67a12.31,12.31,0,0,0,.09-1.33,80.68,80.68,0,0,0-1.08-13.46q-5.24-2.33-14.5-3t-13.92-.71q-6.57,0-16.79.91l-.33,13.3L580.9,220l-.25,16.87q9,.5,16.53.5t12.8-.5q5.15-.5,6-1a3.5,3.5,0,0,0,1.33-2.08,31.59,31.59,0,0,0,.79-5.44l.34-5.15.66-.66H623l.66.66q-.17,9.06-.42,18.2l.42,18.7-.66.66h-3.83l-.66-.66-.58-5q-.75-5.82-1.08-6.94a3.67,3.67,0,0,0-1.54-2q-1.2-.83-6.19-1.33t-13.71-.5q-4.82,0-14.71.42-.42,7-.42,23.27,0,17.45.42,25.68h15.29q20.2,0,25.27-.5a33.32,33.32,0,0,0,9.64-2.41q.74-1.91,2.45-8.85t2-8.69l.83-.58h4l.66.58a115.41,115.41,0,0,0-1.45,12.46q-.71,8.9-.71,15.21l-.58.66q-15.88-.5-41.56-.5L573.84,301q-7.9,0-16.45.66l-.67-.66v-2.74l.67-.83A45,45,0,0,0,563,294.3q.71-.62,1.16-14.54t.46-21.24V228l-.08-18.87q0-6.15-.17-10a31.12,31.12,0,0,0-.59-5.53,6.34,6.34,0,0,0-1-2.33,4.08,4.08,0,0,0-1.75-1.12,19.08,19.08,0,0,0-4.11-.79l-6.32-.5-.67-.58Z" transform="translate(-0.56)" style="fill:#0E243B"/><path d="M651.88,243.73a73.61,73.61,0,0,1,3.58-23.27,53.87,53.87,0,0,1,12.18-20,58.91,58.91,0,0,1,20.73-14.21,71.08,71.08,0,0,1,27.42-5q28.34,0,45.13,15.42t16.79,42.1q0,18.78-8.22,33.74a57.58,57.58,0,0,1-23.56,23.27,71.12,71.12,0,0,1-34.45,8.31,66.85,66.85,0,0,1-24.94-4.53A50.83,50.83,0,0,1,667.13,286a54.86,54.86,0,0,1-11.64-20.78A74.11,74.11,0,0,1,651.88,243.73Zm17.29-5.48a80.84,80.84,0,0,0,3.29,21.81,57.27,57.27,0,0,0,9.81,20,42.11,42.11,0,0,0,15,12.42,47.86,47.86,0,0,0,42.34-1.83q10.05-5.9,15.29-18.33a71.14,71.14,0,0,0,5.23-27.88,74.34,74.34,0,0,0-6-30.33q-6-13.54-17-19.7a49.55,49.55,0,0,0-24.51-6.15q-20.2,0-31.83,12.63T669.17,238.24Z" transform="translate(-0.56)" style="fill:#0E243B"/><path d="M784.19,184.14l.66-.58q20.62.66,23.77.66,2.83,0,23.85-.66l.66.58v4.15l-.66.58q-5.74.17-8.85.5a10.77,10.77,0,0,0-4.53,1.24q-1.41.92-1.87,4.28a73.53,73.53,0,0,0-.46,9.35l-.17,19.11v26.43q0,13,.54,19.16a34.09,34.09,0,0,0,2.33,10.31,18.93,18.93,0,0,0,5.44,7.23,28.32,28.32,0,0,0,10.47,4.95,57.29,57.29,0,0,0,15.46,1.91,55.84,55.84,0,0,0,17.08-2.53q7.93-2.54,12.09-7.36a25.24,25.24,0,0,0,5.44-12.67A142.86,142.86,0,0,0,886.74,249v-25.6q0-6.48-.21-17.83t-1-13a5.2,5.2,0,0,0-2.91-2.58q-2.12-.87-11.76-1l-.67-.67v-3.9l.67-.75q12.3.66,19.7.66,6.32,0,19.62-.66l.75.66v4l-.75.67a78.14,78.14,0,0,0-10.18.62,6.69,6.69,0,0,0-3.32,1.37,5.59,5.59,0,0,0-1.41,2.83q-.46,1.91-.63,11l-.25,18.7v25.26a190.15,190.15,0,0,1-1.16,23.85A31.32,31.32,0,0,1,888,286.82a38.45,38.45,0,0,1-9.56,9.39A42.08,42.08,0,0,1,864.3,302a78,78,0,0,1-18,2,74.39,74.39,0,0,1-20.57-2.58q-8.93-2.57-14.09-6.81a26.78,26.78,0,0,1-7.4-8.93,33.67,33.67,0,0,1-2.91-11.05q-.66-6.36-.67-19.41V223.37l-.17-16.21q-.08-9.47-.46-12.22a7.56,7.56,0,0,0-1.16-3.66,6,6,0,0,0-3-1.5q-2.24-.58-11.05-.91l-.66-.58Z" transform="translate(-0.56)" style="fill:#0E243B"/><path d="M920.65,272.4l.66-.67h4.07l.67.67q.41,10.64,1.12,13t4.49,5a32.09,32.09,0,0,0,10.06,4.28,49.22,49.22,0,0,0,12.67,1.66,37.4,37.4,0,0,0,15.83-3.24,24.81,24.81,0,0,0,10.93-9.52,26.14,26.14,0,0,0,3.9-14.09,22.71,22.71,0,0,0-1.87-9.56,16.31,16.31,0,0,0-5.23-6.52,23.78,23.78,0,0,0-7.69-3.66q-4.32-1.2-12.88-2.62-8.31-1.33-13-2.41A44.4,44.4,0,0,1,935,241.4a24.91,24.91,0,0,1-7.77-5.7,26,26,0,0,1-5-8.48,30.61,30.61,0,0,1-1.87-10.76q0-15.54,10.8-25.47t29-9.93A77.05,77.05,0,0,1,976,182.85a63.88,63.88,0,0,1,15.5,5.28l.58,1q-1.83,7.65-2.24,21.77l-.75.67h-4.32l-.67-.58q-.17-10-.5-12.55T976,192a33.1,33.1,0,0,0-15.71-3.82A31.31,31.31,0,0,0,947.08,191a19.33,19.33,0,0,0-9.31,8.89,26.5,26.5,0,0,0-3.16,12.38,19,19,0,0,0,1.91,8.69,16.27,16.27,0,0,0,4.94,6,21.23,21.23,0,0,0,7.06,3.28q4,1.08,14.75,2.66,14.71,2.08,21.4,5a23.84,23.84,0,0,1,10.72,9.35,28.44,28.44,0,0,1,4,15.46q0,17.7-14.42,29.5t-34.95,11.8q-17.2,0-30.17-6.15l-.5-1.08Q920.23,291.6,920.65,272.4Z" transform="translate(-0.56)" style="fill:#0E243B"/></svg>