<svg width="80" height="41" viewBox="0 0 80 41" fill="none" xmlns="http://www.w3.org/2000/svg">
<path d="M27.346 30.002C27.4626 30.0636 27.5578 30.1592 27.619 30.276C27.6877 30.4112 27.7214 30.5615 27.717 30.713V31.647H27.321V31.235H26.545V31.645H26.152V30.712C26.1476 30.5605 26.1813 30.4102 26.25 30.275C26.3111 30.1581 26.4063 30.0625 26.523 30.001C26.652 29.9401 26.7928 29.9085 26.9355 29.9085C27.0781 29.9085 27.219 29.9401 27.348 30.001H27.346V30.002ZM27.322 30.919V30.679C27.3303 30.5627 27.2926 30.4478 27.217 30.359C27.1382 30.2886 27.0362 30.2497 26.9305 30.2497C26.8248 30.2497 26.7228 30.2886 26.644 30.359C26.5694 30.4483 26.5325 30.563 26.541 30.679V30.919H27.321H27.322ZM28.111 29.939H28.887C29.057 29.935 29.225 29.971 29.378 30.045C29.516 30.111 29.631 30.215 29.711 30.344C29.7885 30.481 29.8292 30.6357 29.8292 30.793C29.8292 30.9504 29.7885 31.1051 29.711 31.242C29.6314 31.3718 29.5161 31.4759 29.379 31.542C29.225 31.615 29.057 31.652 28.887 31.648H28.111V29.938V29.939ZM28.867 31.322C29.017 31.3302 29.1642 31.2792 29.277 31.18C29.3751 31.075 29.4296 30.9367 29.4296 30.793C29.4296 30.6493 29.3751 30.511 29.277 30.406C29.1642 30.3069 29.017 30.2559 28.867 30.264H28.507V31.324L28.867 31.322ZM31.771 29.938L31.03 31.648H30.64L29.901 29.938H30.329L30.849 31.158L31.377 29.938H31.771ZM32.297 31.562C32.157 31.4887 32.0401 31.3778 31.9596 31.2418C31.8791 31.1058 31.838 30.9501 31.841 30.792C31.8382 30.634 31.8794 30.4784 31.9599 30.3424C32.0404 30.2065 32.1571 30.0955 32.297 30.022C32.4459 29.9464 32.6106 29.9071 32.7776 29.9072C32.9446 29.9074 33.1092 29.9471 33.258 30.023C33.3972 30.0975 33.5137 30.2083 33.5948 30.3438C33.676 30.4792 33.7189 30.6341 33.7189 30.792C33.7189 30.9499 33.676 31.1049 33.5948 31.2403C33.5137 31.3757 33.3972 31.4866 33.258 31.561C33.1092 31.637 32.9445 31.6766 32.7775 31.6766C32.6104 31.6766 32.4458 31.637 32.297 31.561V31.562ZM33.05 31.27C33.1304 31.2243 33.1965 31.1571 33.241 31.076C33.2867 30.9887 33.3106 30.8916 33.3106 30.793C33.3106 30.6944 33.2867 30.5973 33.241 30.51C33.1965 30.4289 33.1304 30.3618 33.05 30.316C32.9661 30.2703 32.872 30.2464 32.7765 30.2464C32.6809 30.2464 32.5869 30.2703 32.503 30.316C32.4222 30.3616 32.3558 30.4288 32.311 30.51C32.2653 30.5973 32.2414 30.6944 32.2414 30.793C32.2414 30.8916 32.2653 30.9887 32.311 31.076C32.356 31.157 32.422 31.224 32.503 31.27C32.5869 31.3156 32.681 31.3395 32.7765 31.3395C32.872 31.3395 32.966 31.3156 33.05 31.27ZM34.355 31.563C34.2155 31.4894 34.0992 31.3783 34.0192 31.2423C33.9392 31.1063 33.8986 30.9508 33.902 30.793C33.8983 30.6353 33.9386 30.4797 34.0184 30.3437C34.0983 30.2077 34.2145 30.0966 34.354 30.023C34.4892 29.9549 34.6374 29.9165 34.7887 29.9105C34.94 29.9044 35.0908 29.9309 35.231 29.988C35.348 30.038 35.451 30.115 35.533 30.212L35.275 30.446C35.223 30.3824 35.1573 30.3314 35.0829 30.2968C35.0084 30.2622 34.9271 30.2448 34.845 30.246C34.7462 30.2444 34.6487 30.2686 34.562 30.316C34.4805 30.3609 34.4133 30.4278 34.368 30.509C34.3221 30.5965 34.2981 30.6938 34.2981 30.7925C34.2981 30.8913 34.3221 30.9886 34.368 31.076C34.4133 31.1573 34.4805 31.2242 34.562 31.269C34.6487 31.3163 34.7462 31.3404 34.845 31.339C34.9273 31.3402 35.0088 31.3226 35.0833 31.2876C35.1578 31.2526 35.2234 31.2011 35.275 31.137L35.529 31.371C35.4478 31.4701 35.3439 31.548 35.226 31.598C35.0995 31.6517 34.9634 31.6789 34.826 31.678C34.6618 31.6796 34.4999 31.6401 34.355 31.563ZM36.981 30.002C37.0976 30.0636 37.1928 30.1592 37.254 30.276C37.3223 30.4113 37.3557 30.5615 37.351 30.713V31.647H36.957V31.235H36.176V31.645H35.785V30.712C35.7806 30.5605 35.8143 30.4102 35.883 30.275C35.9442 30.1585 36.0394 30.0633 36.156 30.002C36.285 29.9411 36.4258 29.9095 36.5685 29.9095C36.7111 29.9095 36.852 29.9411 36.981 30.002ZM36.957 30.919V30.679C36.9653 30.5627 36.9276 30.4478 36.852 30.359C36.7732 30.2886 36.6712 30.2497 36.5655 30.2497C36.4598 30.2497 36.3578 30.2886 36.279 30.359C36.2044 30.4483 36.1675 30.563 36.176 30.679V30.919H36.956H36.957ZM38.987 30.416C38.8416 30.3331 38.6818 30.2788 38.516 30.256V31.651H38.12V30.253C37.9533 30.2759 37.7925 30.3302 37.646 30.413L37.512 30.118C37.63 30.047 37.759 29.993 37.892 29.958C38.17 29.8858 38.4619 29.8858 38.74 29.958C38.875 29.992 39.003 30.046 39.12 30.118L38.987 30.416ZM40.697 31.501C40.603 31.5616 40.4991 31.6052 40.39 31.63C40.2617 31.6615 40.1301 31.6769 39.998 31.676C39.8487 31.6795 39.6999 31.6575 39.558 31.611C39.4524 31.5774 39.3582 31.5151 39.286 31.431C39.2247 31.356 39.1918 31.2619 39.193 31.165C39.1915 31.079 39.2178 30.9949 39.268 30.925C39.3202 30.8538 39.3922 30.7996 39.475 30.769C39.4105 30.7355 39.3566 30.6845 39.3195 30.622C39.2824 30.5594 39.2635 30.4877 39.265 30.415C39.265 30.323 39.295 30.234 39.35 30.161C39.4178 30.0768 39.5079 30.0134 39.61 29.978C39.745 29.928 39.89 29.906 40.034 29.909C40.143 29.909 40.252 29.92 40.359 29.942C40.454 29.961 40.546 29.991 40.634 30.032L40.524 30.334C40.375 30.2642 40.2125 30.2284 40.048 30.229C39.9489 30.2232 39.85 30.2432 39.761 30.287C39.7323 30.3015 39.7081 30.3237 39.6912 30.351C39.6743 30.3784 39.6652 30.4099 39.665 30.442C39.6635 30.4686 39.6686 30.4952 39.68 30.5193C39.6913 30.5434 39.7085 30.5642 39.73 30.58C39.7888 30.6157 39.8574 30.6321 39.926 30.627H40.392V30.939H39.902C39.822 30.9346 39.7423 30.9526 39.672 30.991C39.6465 31.0063 39.6255 31.0283 39.6114 31.0545C39.5974 31.0807 39.5906 31.1103 39.592 31.14C39.5923 31.1739 39.6024 31.2071 39.621 31.2354C39.6396 31.2638 39.666 31.2862 39.697 31.3C39.797 31.345 39.907 31.364 40.017 31.358C40.119 31.357 40.221 31.343 40.32 31.315C40.4117 31.2923 40.4986 31.2537 40.577 31.201L40.697 31.501ZM41.098 31.621C40.9892 31.5926 40.8865 31.5444 40.795 31.479L40.929 31.181C41.094 31.2974 41.2911 31.3596 41.493 31.359C41.579 31.365 41.665 31.3477 41.742 31.309C41.7662 31.2963 41.7864 31.2771 41.8005 31.2537C41.8146 31.2302 41.822 31.2034 41.822 31.176C41.8222 31.1569 41.8181 31.138 41.8099 31.1206C41.8018 31.1033 41.7899 31.0881 41.775 31.076C41.7389 31.0467 41.6975 31.0246 41.653 31.011C41.5869 30.9899 41.5198 30.9719 41.452 30.957C41.3436 30.9324 41.2367 30.9014 41.132 30.864C41.0491 30.8335 40.9754 30.7822 40.918 30.715C40.8553 30.6383 40.8232 30.541 40.828 30.442C40.8271 30.3459 40.8553 30.2518 40.909 30.172C40.9689 30.0866 41.0523 30.0203 41.149 29.981C41.2761 29.9304 41.4123 29.9065 41.549 29.911C41.658 29.911 41.765 29.923 41.87 29.949C41.967 29.972 42.059 30.01 42.143 30.062L42.022 30.362C41.8785 30.2763 41.7151 30.2297 41.548 30.227C41.4628 30.2211 41.3778 30.2398 41.303 30.281C41.2782 30.2954 41.2576 30.3161 41.2436 30.3411C41.2295 30.3661 41.2224 30.3944 41.223 30.423C41.2231 30.4514 41.2318 30.479 41.2481 30.5023C41.2644 30.5255 41.2874 30.5432 41.314 30.553C41.404 30.591 41.498 30.619 41.594 30.637C41.702 30.662 41.809 30.693 41.914 30.73C41.996 30.76 42.07 30.811 42.128 30.877C42.1903 30.9528 42.2221 31.0491 42.217 31.147C42.2183 31.2424 42.1904 31.336 42.137 31.415C42.0755 31.5013 41.9904 31.5679 41.892 31.607C41.764 31.657 41.628 31.681 41.492 31.677C41.358 31.677 41.226 31.659 41.098 31.622V31.621ZM44.661 30.915C44.7168 30.9926 44.7449 31.0866 44.741 31.182C44.7441 31.2496 44.7297 31.3169 44.6992 31.3773C44.6687 31.4377 44.6232 31.4893 44.567 31.527C44.4132 31.6173 44.2359 31.6595 44.058 31.648H43.178V29.938H44.013C44.181 29.928 44.349 29.969 44.493 30.058C44.5459 30.0936 44.5889 30.1419 44.6181 30.1986C44.6473 30.2552 44.6617 30.3183 44.66 30.382C44.6618 30.4597 44.6415 30.5362 44.6015 30.6028C44.5615 30.6694 44.5034 30.7232 44.434 30.758C44.5242 30.7853 44.6036 30.8402 44.661 30.915ZM43.57 30.237V30.637H43.963C44.0403 30.6422 44.1174 30.6248 44.185 30.587C44.2097 30.5705 44.2296 30.5477 44.2428 30.521C44.2559 30.4944 44.2619 30.4647 44.26 30.435C44.2616 30.4057 44.2556 30.3764 44.2424 30.3501C44.2293 30.3238 44.2095 30.3013 44.185 30.285C44.1173 30.2475 44.0402 30.2302 43.963 30.235L43.57 30.237ZM44.266 31.299C44.2924 31.2819 44.3138 31.2581 44.3278 31.2299C44.3419 31.2018 44.3482 31.1704 44.346 31.139C44.346 30.997 44.242 30.927 44.032 30.927H43.57V31.349H44.032C44.1131 31.3544 44.1941 31.3371 44.266 31.299ZM46.573 29.939V31.647H46.189V31.44C46.1293 31.5196 46.0508 31.5831 45.9606 31.625C45.8704 31.6668 45.7713 31.6858 45.672 31.68C45.5839 31.685 45.4959 31.6705 45.4141 31.6375C45.3323 31.6045 45.2589 31.5538 45.199 31.489C45.086 31.361 45.029 31.179 45.029 30.943V29.943H45.425V30.931C45.4165 31.0425 45.4508 31.153 45.521 31.24C45.5549 31.275 45.5959 31.3024 45.6413 31.3201C45.6867 31.3379 45.7353 31.3457 45.784 31.343C45.8366 31.3454 45.8891 31.3367 45.9382 31.3176C45.9873 31.2985 46.0318 31.2694 46.069 31.232C46.1466 31.1407 46.185 31.0225 46.176 30.903V29.943L46.573 29.938V29.939ZM48.067 31.647L47.737 31.171H47.373V31.647H46.977V29.938H47.717C47.8526 29.9349 47.9873 29.9608 48.112 30.014C48.2184 30.0586 48.3086 30.1345 48.3706 30.2317C48.4326 30.329 48.4635 30.4428 48.459 30.558C48.4631 30.6733 48.4315 30.7871 48.3685 30.8837C48.3055 30.9804 48.2141 31.0552 48.107 31.098L48.49 31.648H48.067V31.647ZM47.967 30.337C47.8888 30.2795 47.7929 30.2512 47.696 30.257H47.376V30.853H47.696C47.7926 30.8591 47.8883 30.8307 47.966 30.773C47.9953 30.7443 48.0185 30.7101 48.0344 30.6723C48.0503 30.6346 48.0584 30.594 48.0584 30.553C48.0584 30.512 48.0503 30.4715 48.0344 30.4337C48.0185 30.3959 47.9953 30.3617 47.966 30.333V30.337H47.967ZM50.171 31.501C50.0772 31.5615 49.9737 31.6051 49.865 31.63C49.7367 31.6615 49.6051 31.6769 49.473 31.676C49.3237 31.6795 49.1749 31.6575 49.033 31.611C48.927 31.5776 48.8325 31.5152 48.76 31.431C48.6987 31.356 48.6658 31.2619 48.667 31.165C48.6658 31.0789 48.6925 30.9948 48.743 30.925C48.7952 30.8538 48.8672 30.7996 48.95 30.769C48.8854 30.7356 48.8315 30.6846 48.7943 30.6221C48.7572 30.5595 48.7384 30.4878 48.74 30.415C48.74 30.323 48.77 30.234 48.825 30.161C48.8925 30.077 48.9822 30.0136 49.084 29.978C49.22 29.928 49.364 29.906 49.508 29.909C49.618 29.909 49.726 29.92 49.833 29.942C49.929 29.961 50.021 29.991 50.109 30.032L49.999 30.334C49.8501 30.2642 49.6875 30.2284 49.523 30.229C49.4239 30.2232 49.325 30.2432 49.236 30.287C49.2072 30.3015 49.183 30.3236 49.1661 30.3509C49.1491 30.3783 49.1401 30.4098 49.14 30.442C49.1385 30.4686 49.1436 30.4952 49.155 30.5193C49.1663 30.5434 49.1835 30.5642 49.205 30.58C49.2638 30.6157 49.3324 30.6321 49.401 30.627H49.867V30.939H49.377C49.297 30.9345 49.2173 30.9525 49.147 30.991C49.1215 31.0064 49.1007 31.0284 49.0866 31.0546C49.0725 31.0808 49.0657 31.1103 49.067 31.14C49.0672 31.1738 49.0772 31.2069 49.0956 31.2352C49.114 31.2636 49.1402 31.2861 49.171 31.3C49.271 31.345 49.381 31.364 49.491 31.358C49.594 31.358 49.696 31.344 49.794 31.318C49.8857 31.2953 49.9726 31.2567 50.051 31.204L50.171 31.501ZM51.583 30.001C51.698 30.063 51.793 30.158 51.853 30.274C51.9217 30.4092 51.9554 30.5595 51.951 30.711V31.646H51.555V31.235H50.775V31.645H50.384V30.712C50.3793 30.5605 50.4127 30.4103 50.481 30.275C50.5421 30.1581 50.6373 30.0625 50.754 30.001C50.883 29.9401 51.0238 29.9085 51.1665 29.9085C51.3091 29.9085 51.45 29.9401 51.579 30.001H51.583ZM51.559 30.919V30.679C51.5673 30.5627 51.5296 30.4478 51.454 30.359C51.3752 30.2886 51.2732 30.2497 51.1675 30.2497C51.0618 30.2497 50.9598 30.2886 50.881 30.359C50.8063 30.4482 50.7694 30.563 50.778 30.679V30.919H51.558H51.559ZM53.873 29.939V31.647H53.49V31.44C53.4301 31.5196 53.3514 31.5831 53.2611 31.625C53.1707 31.6668 53.0714 31.6857 52.972 31.68C52.8841 31.6849 52.7962 31.6703 52.7146 31.6373C52.6331 31.6043 52.5598 31.5536 52.5 31.489C52.386 31.361 52.33 31.179 52.33 30.943V29.943H52.725V30.931C52.7167 31.0426 52.7514 31.1532 52.822 31.24C52.8558 31.2749 52.8966 31.3021 52.9418 31.3199C52.987 31.3377 53.0355 31.3456 53.084 31.343C53.1366 31.3454 53.1891 31.3367 53.2382 31.3176C53.2873 31.2985 53.3318 31.2694 53.369 31.232C53.447 31.1409 53.4859 31.0226 53.477 30.903V29.943L53.873 29.938V29.939Z" fill="#0E243B"/>
<path d="M67.337 2.045V13.392H65.069V4.117L49.894 2.325L40.002 5.718L39.961 5.706L30.106 2.325L14.93 4.117V13.392H12.663V2.045L12.769 2.033L30.356 0L40.002 3.212L49.644 0L49.672 0.004L67.337 2.045Z" fill="#0E243B"/>
<path d="M67.355 25.24V29.278L67.323 29.31C60.466 36.323 51.533 39.835 40 40.045C28.467 39.835 19.53 36.323 12.677 29.313L12.645 29.28V25.24H14.925V28.506C21.419 34.66 29.623 37.778 40 38.043C50.372 37.776 58.577 34.657 65.068 28.503V25.24H67.355Z" fill="#0E243B"/>
<path d="M59.23 10.127L59.225 10.357L40 10.614L20.77 10.355V10.125L40 9.7L59.23 10.128V10.127ZM50.803 11.387L40.006 11.947L29.198 11.387L29.202 11.153L40.002 11.022L50.798 11.153L50.803 11.387ZM40.709 8.39L40.002 9.462L39.292 8.39L40.002 6.767L40.709 8.39ZM51.649 27.796L51.644 28.03H28.36L28.352 27.796L39.994 27.065L51.648 27.796H51.649Z" fill="#0E243B"/>
<path d="M0 14.748L0.053 14.701C0.865 14.736 1.497 14.754 1.95 14.754C2.452 14.754 3.128 14.739 3.98 14.708C4.295 14.698 4.524 14.694 4.666 14.694C5.787 14.694 6.548 14.898 6.949 15.307C7.14158 15.496 7.294 15.7219 7.39711 15.9713C7.50021 16.2206 7.55187 16.4882 7.549 16.758C7.54603 17.1443 7.44486 17.5236 7.255 17.86C7.04658 18.2336 6.74953 18.5502 6.39 18.782C6.009 19.037 5.483 19.229 4.813 19.358C4.938 19.528 5.161 19.826 5.481 20.252L6.426 21.503C6.732 21.916 7.061 22.352 7.412 22.811C7.762 23.271 7.989 23.53 8.091 23.59C8.171 23.64 8.261 23.678 8.353 23.7C8.469 23.715 8.586 23.722 8.703 23.72L8.756 23.773V24.085L8.696 24.145C8.44439 24.1162 8.19125 24.1029 7.938 24.105C7.623 24.105 7.278 24.119 6.906 24.145C6.6 23.772 6.12 23.126 5.465 22.209C4.73317 21.1834 3.95122 20.1946 3.122 19.246L3.188 19.039C3.419 19.052 3.598 19.059 3.728 19.059C4.495 19.059 5.096 18.875 5.531 18.506C5.966 18.138 6.183 17.629 6.184 16.979C6.184 16.392 5.989 15.949 5.598 15.651C5.208 15.353 4.68 15.203 4.014 15.201C3.56771 15.1986 3.12364 15.264 2.697 15.395C2.631 15.49 2.598 16.322 2.598 17.89V20.971L2.605 22.269C2.6 22.593 2.614 22.918 2.645 23.24C2.651 23.345 2.685 23.446 2.741 23.534C2.80822 23.5962 2.89124 23.6388 2.981 23.657C3.101 23.69 3.396 23.717 3.866 23.737L3.92 23.777V24.107L3.866 24.16L2.694 24.12C2.38 24.111 2.134 24.107 1.957 24.107C1.82 24.107 1.185 24.125 0.054 24.16L0 24.107V23.775L0.053 23.735C0.329 23.729 0.605 23.707 0.879 23.668C0.978816 23.6568 1.07431 23.621 1.157 23.564C1.21924 23.4865 1.25809 23.3928 1.269 23.294C1.309 22.989 1.324 22.682 1.317 22.375L1.323 20.971V17.89L1.31 16.59C1.306 16.085 1.294 15.758 1.274 15.612C1.26883 15.508 1.23679 15.407 1.181 15.319C1.11403 15.257 1.03078 15.2154 0.941 15.199C0.821 15.168 0.525 15.143 0.055 15.126L0.003 15.079L0 14.748ZM9.218 14.701L10.05 14.728C10.596 14.745 10.953 14.754 11.122 14.754C11.273 14.754 11.91 14.736 13.032 14.701L13.085 14.748V15.08L13.032 15.126C12.726 15.136 12.489 15.149 12.323 15.166C12.1964 15.1723 12.0728 15.2064 11.961 15.266C11.885 15.315 11.835 15.429 11.811 15.609C11.783 15.857 11.771 16.107 11.774 16.358L11.76 17.888V20.97L11.767 22.267C11.763 22.592 11.776 22.916 11.807 23.239C11.814 23.343 11.847 23.444 11.903 23.532C11.9702 23.5942 12.0532 23.6368 12.143 23.655C12.263 23.688 12.558 23.715 13.028 23.735L13.081 23.775V24.107L13.028 24.16L11.857 24.12C11.541 24.11 11.295 24.106 11.117 24.106C10.979 24.106 10.345 24.124 9.214 24.159L9.165 24.107V23.775L9.219 23.735C9.496 23.729 9.772 23.705 10.047 23.666C10.146 23.6547 10.2408 23.6193 10.323 23.563C10.3856 23.4856 10.4248 23.3919 10.436 23.293C10.4755 22.9887 10.4922 22.6818 10.486 22.375L10.492 20.971V17.89L10.478 16.591C10.474 16.086 10.462 15.759 10.441 15.613C10.4358 15.509 10.4038 15.408 10.348 15.32C10.281 15.258 10.1978 15.2164 10.108 15.2C9.988 15.169 9.694 15.144 9.223 15.127L9.169 15.08V14.748L9.219 14.701H9.218ZM23.39 20.48V20.68L23.364 20.76L23.038 20.952C22.9836 20.9789 22.9358 21.0175 22.898 21.065C22.8698 21.1956 22.8531 21.3285 22.848 21.462C22.7981 22.1705 22.8125 22.8821 22.891 23.588L22.851 23.655C21.656 24.117 20.386 24.354 19.104 24.354C18.1835 24.3677 17.2714 24.1764 16.434 23.794C15.6568 23.436 15.0002 22.86 14.544 22.136C14.078 21.404 13.845 20.534 13.845 19.526C13.845 17.992 14.37 16.771 15.42 15.866C16.47 14.96 17.84 14.506 19.53 14.504C20.772 14.504 21.889 14.715 22.879 15.136L22.925 15.209C22.845 15.507 22.752 16.13 22.645 17.079L22.593 17.126H22.285L22.232 17.072L22.199 16.366C22.197 16.2299 22.1823 16.0943 22.155 15.961C22.1203 15.8973 22.0714 15.8426 22.012 15.801C21.932 15.736 21.727 15.634 21.396 15.494C21.0759 15.3576 20.7424 15.2551 20.401 15.188C20.0479 15.1221 19.6892 15.0899 19.33 15.092C18.518 15.092 17.799 15.261 17.173 15.599C16.5565 15.9269 16.061 16.4434 15.759 17.073C15.4358 17.7445 15.2729 18.4819 15.283 19.227C15.277 20.016 15.453 20.795 15.795 21.506C16.116 22.186 16.627 22.758 17.267 23.153C17.907 23.548 18.651 23.746 19.497 23.746C19.8756 23.7449 20.2533 23.7081 20.625 23.636C20.955 23.581 21.275 23.476 21.573 23.327C21.613 23.185 21.633 22.899 21.633 22.469V21.737C21.633 21.387 21.611 21.167 21.567 21.081C21.522 20.995 21.413 20.934 21.237 20.899C21.062 20.864 20.684 20.841 20.103 20.832L20.043 20.772V20.48L20.103 20.42L20.509 20.434C21.203 20.456 21.771 20.467 22.213 20.467C22.466 20.467 22.837 20.454 23.325 20.427L23.39 20.48ZM24.216 14.702C25.347 14.737 25.982 14.755 26.12 14.755C26.266 14.755 26.903 14.737 28.03 14.702L28.083 14.749V15.081L28.03 15.127C27.724 15.137 27.487 15.15 27.321 15.167C27.1941 15.1731 27.0701 15.2073 26.958 15.267C26.883 15.316 26.833 15.43 26.808 15.61C26.78 15.858 26.768 16.108 26.772 16.359L26.758 17.889V18.822C27.73 18.849 28.651 18.862 29.52 18.862C30.71 18.862 31.615 18.849 32.236 18.822V17.891L32.223 16.592C32.2272 16.2655 32.2138 15.9391 32.183 15.614C32.1756 15.5104 32.1438 15.4099 32.09 15.321C32.0237 15.2581 31.9401 15.2163 31.85 15.201C31.73 15.17 31.432 15.145 30.957 15.128L30.911 15.081V14.749L30.957 14.702C32.093 14.737 32.73 14.755 32.867 14.755C33.018 14.755 33.655 14.737 34.777 14.702L34.83 14.749V15.081L34.778 15.127C34.467 15.137 34.228 15.15 34.062 15.167C33.9354 15.1733 33.8118 15.2074 33.7 15.267C33.624 15.316 33.575 15.43 33.553 15.61C33.527 15.858 33.513 16.108 33.513 16.359L33.499 17.889V20.971L33.513 22.268C33.509 22.593 33.523 22.917 33.553 23.24C33.56 23.344 33.593 23.445 33.649 23.533C33.716 23.596 33.799 23.638 33.889 23.656C34.007 23.689 34.303 23.716 34.779 23.736L34.831 23.776V24.108L34.778 24.161C34.1415 24.1388 33.5048 24.1212 32.868 24.108C32.731 24.108 32.094 24.126 30.958 24.161L30.912 24.108V23.776L30.958 23.736C31.2364 23.7303 31.5143 23.708 31.79 23.669C31.8883 23.6584 31.9822 23.623 32.063 23.566C32.1239 23.4876 32.1629 23.3944 32.176 23.296C32.207 23.158 32.223 22.852 32.223 22.377L32.236 20.973V19.455C30.923 19.428 30.002 19.415 29.474 19.415C28.933 19.415 28.027 19.428 26.758 19.455V20.972L26.765 22.27C26.76 22.594 26.774 22.919 26.805 23.241C26.812 23.346 26.845 23.446 26.901 23.535C26.9682 23.5972 27.0512 23.6398 27.141 23.658C27.261 23.691 27.556 23.718 28.026 23.738L28.079 23.778V24.108L28.026 24.161C27.3895 24.1387 26.7528 24.121 26.116 24.108C25.974 24.108 25.339 24.126 24.212 24.161L24.159 24.108V23.776L24.212 23.736C24.488 23.73 24.764 23.708 25.038 23.669C25.137 23.6577 25.2318 23.6223 25.314 23.566C25.3766 23.4886 25.4158 23.3949 25.427 23.296C25.4666 22.9914 25.4833 22.6842 25.477 22.377L25.483 20.973V17.89L25.469 16.591C25.465 16.086 25.453 15.759 25.433 15.613C25.4278 15.509 25.3958 15.408 25.34 15.32C25.273 15.258 25.1898 15.2164 25.1 15.2C24.98 15.169 24.685 15.144 24.214 15.127L24.161 15.08V14.748L24.216 14.701V14.702ZM43.199 14.702L43.259 14.762C43.219 15.162 43.199 15.858 43.199 16.852L43.145 16.905H42.833L42.779 16.845L42.706 16.233C42.6902 16.031 42.6635 15.8301 42.626 15.631C42.6127 15.5683 42.5785 15.5119 42.529 15.471C42.484 15.437 42.34 15.411 42.096 15.391C41.852 15.37 41.579 15.359 41.278 15.357H40.018C39.9944 15.9358 39.9764 16.5149 39.964 17.094V20.974L39.978 22.271C39.982 22.773 39.994 23.099 40.015 23.247C40.0191 23.3511 40.0508 23.4523 40.107 23.54C40.176 23.6 40.259 23.642 40.347 23.66C40.467 23.693 40.765 23.72 41.24 23.74L41.286 23.78V24.108L41.24 24.161C40.104 24.126 39.47 24.108 39.336 24.108C39.194 24.108 38.562 24.126 37.439 24.161L37.385 24.108V23.776L37.439 23.736C37.716 23.73 37.993 23.708 38.268 23.669C38.366 23.6575 38.4598 23.6221 38.541 23.566C38.6039 23.4885 38.644 23.395 38.657 23.296C38.688 23.158 38.704 22.852 38.704 22.377L38.717 20.973V17.09C38.717 17.02 38.699 16.44 38.664 15.353H37.678C37.27 15.353 36.918 15.362 36.62 15.38C36.324 15.397 36.152 15.443 36.105 15.516C36.058 15.589 36.015 15.827 35.975 16.231L35.908 16.844L35.848 16.904H35.542L35.49 16.85C35.48 15.782 35.46 15.086 35.43 14.76L35.49 14.7C36.262 14.736 37.546 14.753 39.344 14.753C41.173 14.753 42.458 14.736 43.199 14.701V14.702ZM44.005 14.749L44.059 14.702C45.581 14.729 46.555 14.742 46.982 14.742C48.437 14.742 49.732 14.729 50.868 14.702L50.902 14.749C50.792 15.176 50.709 15.843 50.655 16.751L50.615 16.805H50.289L50.229 16.751C50.2336 16.7155 50.2362 16.6798 50.237 16.644C50.2381 16.2829 50.209 15.9223 50.15 15.566C49.87 15.442 49.483 15.362 48.989 15.326C48.618 15.2962 48.2461 15.2772 47.874 15.269C47.523 15.269 47.074 15.294 46.529 15.342L46.503 16.407L46.48 17.621L46.46 18.971C46.94 18.998 47.382 19.011 47.784 19.011C48.186 19.011 48.528 18.998 48.809 18.971C49.084 18.945 49.244 18.919 49.289 18.891C49.3436 18.8505 49.3817 18.7915 49.396 18.725C49.43 18.582 49.451 18.436 49.46 18.289L49.487 17.877L49.54 17.824H49.852L49.905 17.877C49.895 18.361 49.885 18.847 49.871 19.335L49.905 20.832L49.852 20.885H49.545L49.492 20.832L49.446 20.432C49.4261 20.2454 49.3971 20.0598 49.359 19.876C49.3382 19.8098 49.2946 19.7532 49.236 19.716C49.172 19.672 49.006 19.636 48.74 19.609C48.474 19.583 48.108 19.569 47.642 19.569C47.385 19.569 46.992 19.58 46.464 19.603C46.442 19.977 46.431 20.598 46.431 21.467C46.431 22.398 46.441 23.084 46.464 23.523H47.689C48.767 23.523 49.442 23.51 49.713 23.483C49.9785 23.4576 50.2388 23.3926 50.485 23.29C50.525 23.188 50.59 22.952 50.681 22.581C50.772 22.211 50.826 21.979 50.841 21.886L50.908 21.839H51.228L51.281 21.885C51.224 22.215 51.185 22.549 51.165 22.883C51.127 23.359 51.108 23.765 51.108 24.102L51.061 24.154C50.213 24.128 49.104 24.114 47.733 24.114L45.915 24.108C45.493 24.108 45.054 24.126 44.597 24.161L44.544 24.108V23.888L44.597 23.822C44.753 23.749 44.903 23.666 45.047 23.572C45.085 23.538 45.116 23.15 45.14 22.407C45.164 21.664 45.176 21.097 45.176 20.706V18.26L45.17 16.75C45.17 16.42 45.165 16.154 45.156 15.948C45.1536 15.7992 45.1379 15.651 45.109 15.505C45.0951 15.4383 45.0679 15.375 45.029 15.319C44.9909 15.2774 44.9427 15.2464 44.889 15.229C44.7817 15.1959 44.671 15.1748 44.559 15.166L44.054 15.126L44 15.079L44.005 14.748V14.749ZM52.165 19.521C52.1602 18.8886 52.2571 18.2596 52.452 17.658C52.6556 17.059 52.9885 16.5121 53.427 16.056C53.8921 15.5617 54.4583 15.1736 55.087 14.918C55.7857 14.6409 56.5324 14.505 57.284 14.518C58.797 14.518 60.002 14.928 60.898 15.752C61.795 16.576 62.243 17.699 62.243 19.124C62.243 20.127 62.023 21.027 61.584 21.826C61.1514 22.6186 60.4956 23.2668 59.698 23.69C58.849 24.1414 57.8995 24.3705 56.938 24.356C56.2553 24.3634 55.5774 24.2402 54.941 23.993C54.3444 23.7585 53.8116 23.3864 53.386 22.907C52.9572 22.427 52.639 21.8586 52.454 21.242C52.2735 20.686 52.1762 20.1064 52.165 19.522V19.521ZM53.55 19.082C53.557 19.674 53.646 20.262 53.813 20.829C53.968 21.409 54.235 21.954 54.599 22.431C54.916 22.851 55.328 23.193 55.8 23.426C56.3385 23.6637 56.9246 23.774 57.5127 23.7485C58.1008 23.7231 58.6751 23.5624 59.191 23.279C59.728 22.964 60.136 22.475 60.416 21.811C60.704 21.102 60.846 20.343 60.835 19.578C60.847 18.7437 60.6834 17.9161 60.355 17.149C60.034 16.426 59.58 15.9 58.993 15.571C58.3922 15.2402 57.7158 15.0707 57.03 15.079C55.951 15.079 55.101 15.416 54.48 16.09C53.86 16.765 53.55 17.762 53.55 19.082ZM62.762 14.749L62.815 14.702C63.915 14.737 64.55 14.755 64.718 14.755C64.869 14.755 65.506 14.737 66.628 14.702L66.681 14.749V15.081L66.628 15.127C66.322 15.137 66.086 15.15 65.92 15.167C65.7931 15.1732 65.6692 15.2074 65.557 15.267C65.482 15.316 65.432 15.43 65.407 15.61C65.379 15.858 65.367 16.108 65.37 16.359L65.357 17.889V20.006C65.357 20.7 65.371 21.211 65.4 21.54C65.419 21.824 65.482 22.102 65.586 22.366C65.683 22.591 65.832 22.79 66.022 22.946C66.272 23.134 66.557 23.269 66.861 23.341C67.264 23.449 67.681 23.501 68.099 23.495C68.563 23.498 69.024 23.43 69.467 23.292C69.89 23.156 70.213 22.96 70.435 22.702C70.672 22.412 70.823 22.06 70.871 21.688C70.95 21.11 70.985 20.527 70.975 19.943V17.893C70.975 17.547 70.969 17.071 70.958 16.465C70.947 15.859 70.92 15.512 70.878 15.424C70.83 15.3275 70.7465 15.2533 70.645 15.217C70.532 15.171 70.218 15.144 69.703 15.137L69.649 15.084V14.771L69.703 14.711C70.36 14.746 70.886 14.764 71.281 14.764C71.618 14.764 72.142 14.746 72.852 14.711L72.912 14.764V15.084L72.852 15.138C72.5795 15.1369 72.3073 15.1536 72.037 15.188C71.94 15.1997 71.848 15.2378 71.771 15.298C71.7124 15.3609 71.6731 15.4394 71.658 15.524C71.633 15.626 71.617 15.92 71.608 16.405L71.588 17.903V19.926C71.597 20.564 71.566 21.202 71.495 21.836C71.4499 22.2433 71.3057 22.6333 71.075 22.972C70.866 23.2655 70.607 23.52 70.31 23.724C69.9641 23.9465 69.5805 24.1037 69.178 24.188C68.7052 24.2971 68.2212 24.3508 67.736 24.348C67.1801 24.3565 66.6257 24.2872 66.089 24.142C65.612 24.004 65.236 23.822 64.96 23.596C64.7124 23.4039 64.51 23.1599 64.367 22.881C64.2394 22.6015 64.1606 22.3021 64.134 21.996C64.099 21.656 64.081 21.138 64.081 20.441V17.891L64.067 16.592C64.063 16.087 64.051 15.76 64.03 15.614C64.0248 15.51 63.9928 15.409 63.937 15.321C63.87 15.259 63.7868 15.2174 63.697 15.201C63.577 15.17 63.283 15.145 62.812 15.128L62.759 15.081L62.762 14.749ZM73.691 21.817L73.744 21.764H74.07L74.123 21.817C74.145 22.386 74.175 22.733 74.213 22.859C74.251 22.985 74.371 23.119 74.573 23.259C74.819 23.419 75.092 23.535 75.378 23.602C75.709 23.69 76.05 23.735 76.393 23.735C76.829 23.742 77.263 23.653 77.661 23.475C78.022 23.314 78.327 23.048 78.536 22.713C78.746 22.374 78.854 21.983 78.849 21.584C78.8549 21.3212 78.8038 21.0602 78.699 20.819C78.6069 20.6111 78.4621 20.4308 78.279 20.296C78.0932 20.1622 77.8849 20.063 77.664 20.003C77.434 19.939 77.089 19.869 76.632 19.793C76.189 19.723 75.842 19.658 75.592 19.6C75.332 19.54 75.08 19.451 74.84 19.335C74.6049 19.2246 74.3936 19.0694 74.218 18.878C74.0427 18.6792 73.9069 18.4487 73.818 18.199C73.7167 17.923 73.6659 17.631 73.668 17.337C73.668 16.507 73.956 15.827 74.532 15.297C75.109 14.767 75.883 14.502 76.855 14.502C77.282 14.506 77.707 14.554 78.124 14.645C78.554 14.733 78.971 14.875 79.365 15.068L79.411 15.148C79.314 15.557 79.254 16.138 79.232 16.892L79.172 16.946H78.826L78.772 16.899C78.763 16.365 78.75 16.03 78.732 15.894C78.715 15.758 78.512 15.586 78.124 15.378C77.7364 15.1736 77.3042 15.0685 76.866 15.072C76.5011 15.0695 76.14 15.1466 75.808 15.298C75.4853 15.4431 75.222 15.6944 75.062 16.01C74.898 16.315 74.811 16.655 74.809 17.002C74.804 17.242 74.856 17.481 74.962 17.698C75.052 17.888 75.189 18.052 75.357 18.178C75.528 18.3 75.72 18.388 75.923 18.441C76.136 18.498 76.53 18.569 77.104 18.654C77.89 18.764 78.461 18.898 78.818 19.054C79.174 19.211 79.473 19.472 79.677 19.804C79.899 20.177 80.011 20.606 79.997 21.041C79.997 21.986 79.612 22.774 78.842 23.404C78.072 24.034 77.139 24.349 76.043 24.349C75.125 24.349 74.319 24.185 73.627 23.857L73.587 23.77C73.634 23.493 73.668 22.843 73.691 21.817Z" fill="#0E243B"/>
</svg>
