<svg width="600" height="301" viewBox="0 0 600 301" fill="none" xmlns="http://www.w3.org/2000/svg">
<g clip-path="url(#clip0_21_248)">
<path d="M444.222 76.2809V78.0048L300.03 79.945L155.809 78.0048L155.778 76.2809L300 73.0733H300.03L444.222 76.2809ZM381.019 85.7355L300.048 89.9282L218.987 85.7355L219.017 83.9815L300.018 82.9964L380.983 83.9815L381.019 85.7355ZM305.316 63.2463L299.988 71.2893L294.684 63.2463L299.988 51.0767L305.316 63.2463ZM387.362 208.795L387.302 210.519H212.668L212.638 208.795L299.952 203.311L387.362 208.795Z" fill="white"/>
<path d="M0 110.934L0.396444 110.585C6.48727 110.85 11.2306 110.982 14.6264 110.982C18.3866 110.982 23.4623 110.866 29.8534 110.633C32.2161 110.565 33.93 110.531 34.9952 110.531C43.4046 110.531 49.113 112.063 52.1204 115.126C53.564 116.544 54.7061 118.239 55.4782 120.11C56.2503 121.98 56.6364 123.987 56.6134 126.011C56.5882 128.897 55.8318 131.731 54.415 134.246C52.8519 137.047 50.6241 139.421 47.9277 141.16C45.0645 143.074 41.1201 144.513 36.0944 145.478C37.0355 146.78 38.7074 149.028 41.11 152.224L48.198 161.606C50.4926 164.702 52.9553 167.972 55.5863 171.415C58.2172 174.859 59.9151 176.805 60.68 177.254C61.2853 177.638 61.9515 177.916 62.6502 178.077C63.5197 178.197 64.3975 178.247 65.2751 178.227L65.6716 178.629V180.972L65.2211 181.423C63.3328 181.206 61.4332 181.106 59.5327 181.122C57.17 181.122 54.5911 181.222 51.796 181.423C49.5014 178.619 45.8974 173.778 40.9839 166.898C35.2615 158.909 29.4049 151.501 23.4142 144.673L23.9128 143.124C25.6427 143.224 26.9902 143.274 27.9553 143.274C33.7138 143.274 38.2228 141.892 41.4825 139.129C44.7421 136.366 46.3739 132.548 46.3779 127.674C46.3779 123.269 44.9143 119.95 41.987 117.715C39.0597 115.481 35.0993 114.358 30.1057 114.346C26.7577 114.325 23.426 114.813 20.2247 115.793C19.7321 116.506 19.4858 122.741 19.4858 134.498V157.612L19.5339 167.343C19.5025 169.775 19.6027 172.208 19.8342 174.629C19.8849 175.411 20.1329 176.167 20.555 176.827C21.0592 177.296 21.6828 177.616 22.357 177.753C23.254 178.001 25.4665 178.201 28.9945 178.353L29.3969 178.654V181.134L28.9945 181.531C28.8263 181.531 25.897 181.431 20.2066 181.23C17.852 181.166 16.0099 181.134 14.6804 181.134C13.6473 181.134 8.88795 181.266 0.402451 181.531L0 181.134V178.642L0.396444 178.341C2.46888 178.299 4.53692 178.133 6.58938 177.843C7.33836 177.756 8.05435 177.486 8.67371 177.056C9.14286 176.475 9.43668 175.773 9.52066 175.031C9.81128 172.749 9.92975 170.448 9.87506 168.148L9.92311 157.618V134.498L9.821 124.761C9.78896 120.969 9.69686 118.522 9.54469 117.421C9.5063 116.64 9.26623 115.883 8.84791 115.222C8.3451 114.757 7.72 114.444 7.04589 114.321C6.14488 114.089 3.9324 113.907 0.408457 113.775L0.0120134 113.426L0 110.934ZM69.1374 110.585L75.3784 110.784C79.471 110.916 82.15 110.982 83.4154 110.982C84.5487 110.982 89.3241 110.85 97.7415 110.585L98.1379 110.934V113.426L97.7415 113.775C95.4429 113.843 93.6709 113.943 92.4255 114.075C91.4747 114.12 90.5455 114.374 89.7045 114.82C89.1398 115.188 88.7654 116.045 88.5812 117.391C88.3698 119.255 88.2775 121.131 88.3049 123.007L88.2028 134.486V157.6L88.2508 167.331C88.2197 169.763 88.32 172.195 88.5512 174.617C88.6034 175.399 88.8512 176.155 89.272 176.815C89.7762 177.284 90.3997 177.604 91.074 177.741C91.971 177.989 94.1835 178.189 97.7114 178.341L98.1079 178.642V181.134L97.7114 181.531C97.5433 181.531 94.614 181.431 88.9236 181.23C86.561 181.162 84.7129 181.128 83.3794 181.128C82.3462 181.128 77.5869 181.26 69.1014 181.525L68.741 181.134V178.642L69.1434 178.341C71.2201 178.296 73.2922 178.125 75.3484 177.831C76.0921 177.745 76.8036 177.479 77.4207 177.056C77.8899 176.475 78.1837 175.773 78.2677 175.031C78.563 172.747 78.6875 170.444 78.6401 168.142L78.6881 157.612V134.498L78.586 124.761C78.554 120.969 78.4619 118.522 78.3097 117.421C78.2708 116.64 78.0308 115.883 77.6129 115.222C77.1101 114.757 76.485 114.444 75.8109 114.321C74.9139 114.089 72.7014 113.907 69.1735 113.775L68.771 113.426V110.934L69.1374 110.585ZM175.42 153.918V155.413L175.222 156.014L172.778 157.462C172.369 157.663 172.01 157.953 171.726 158.309C171.516 159.287 171.391 160.282 171.354 161.282C171.206 163.06 171.132 165.23 171.132 167.793C171.145 170.946 171.327 174.096 171.678 177.23L171.378 177.728C162.413 181.194 152.884 182.972 143.272 182.972C136.37 183.073 129.531 181.637 123.252 178.768C117.423 176.084 112.499 171.767 109.076 166.34C105.58 160.85 103.832 154.326 103.832 146.77C103.832 135.257 107.769 126.105 115.642 119.313C123.514 112.521 133.79 109.118 146.468 109.102C155.786 109.102 164.158 110.681 171.582 113.841L171.931 114.388C171.33 116.618 170.631 121.293 169.834 128.413L169.438 128.762H167.131L166.735 128.359L166.482 123.067C166.47 122.044 166.361 121.025 166.158 120.022C165.898 119.543 165.53 119.132 165.083 118.821C164.482 118.336 162.943 117.571 160.464 116.526C158.064 115.503 155.563 114.734 153.003 114.231C150.353 113.736 147.662 113.495 144.966 113.511C138.876 113.511 133.484 114.776 128.79 117.307C124.164 119.766 120.447 123.641 118.182 128.365C115.759 133.401 114.538 138.93 114.614 144.517C114.569 150.435 115.884 156.284 118.459 161.612C120.864 166.712 124.697 171.004 129.493 173.968C134.298 176.932 139.873 178.413 146.216 178.413C149.057 178.406 151.89 178.13 154.679 177.59C157.152 177.176 159.549 176.394 161.791 175.272C162.092 174.207 162.242 172.06 162.242 168.833V163.354C162.242 160.723 162.076 159.084 161.743 158.435C161.411 157.786 160.588 157.33 159.274 157.065C157.961 156.801 155.124 156.635 150.763 156.567L150.312 156.116V153.918L150.763 153.467L153.808 153.569C159.014 153.738 163.275 153.822 166.591 153.822C168.489 153.822 171.268 153.722 174.928 153.521L175.42 153.918ZM181.613 110.585C190.099 110.85 194.858 110.982 195.891 110.982C196.989 110.982 201.764 110.85 210.217 110.585L210.614 110.934V113.426L210.217 113.775C207.919 113.843 206.147 113.943 204.901 114.075C203.951 114.12 203.021 114.374 202.18 114.82C201.616 115.188 201.241 116.045 201.057 117.391C200.846 119.255 200.753 121.131 200.781 123.007L200.679 134.486V141.49C207.967 141.69 214.873 141.79 221.396 141.79C230.314 141.79 237.104 141.69 241.765 141.49V134.498L241.663 124.761C241.694 122.311 241.594 119.861 241.362 117.421C241.307 116.643 241.068 115.89 240.666 115.222C240.168 114.75 239.54 114.436 238.864 114.321C237.967 114.089 235.736 113.907 232.172 113.775L231.824 113.426V110.934L232.172 110.585C240.69 110.85 245.465 110.982 246.498 110.982C247.631 110.982 252.407 110.85 260.824 110.585L261.221 110.934V113.426L260.824 113.775C258.494 113.843 256.706 113.943 255.46 114.075C254.509 114.12 253.58 114.374 252.739 114.82C252.174 115.188 251.808 116.045 251.64 117.391C251.443 119.257 251.343 121.131 251.34 123.007L251.237 134.486V157.6L251.346 167.319C251.314 169.751 251.415 172.183 251.646 174.605C251.698 175.387 251.946 176.143 252.367 176.803C252.87 177.273 253.494 177.593 254.169 177.728C255.05 177.977 257.272 178.177 260.836 178.329L261.233 178.629V181.134L260.836 181.531C252.315 181.266 247.539 181.134 246.51 181.134C245.481 181.134 240.706 181.266 232.184 181.531L231.836 181.134V178.642L232.184 178.341C234.272 178.3 236.357 178.133 238.425 177.843C239.163 177.762 239.867 177.496 240.473 177.068C240.93 176.48 241.222 175.781 241.32 175.043C241.553 174.01 241.669 171.714 241.669 168.154L241.771 157.624V146.229C231.92 146.029 225.014 145.929 221.054 145.929C216.993 145.929 210.203 146.029 200.685 146.229V157.612L200.733 167.343C200.702 169.775 200.802 172.207 201.033 174.629C201.085 175.411 201.333 176.167 201.754 176.827C202.258 177.296 202.882 177.616 203.556 177.753C204.453 178.001 206.665 178.201 210.193 178.353L210.59 178.654V181.134L210.193 181.531C201.708 181.266 196.933 181.134 195.867 181.134C194.802 181.134 190.043 181.266 181.589 181.531L181.187 181.134V178.642L181.589 178.341C183.662 178.299 185.73 178.133 187.782 177.843C188.526 177.757 189.238 177.491 189.855 177.068C190.324 176.487 190.618 175.785 190.702 175.043C190.997 172.759 191.121 170.456 191.074 168.154L191.122 157.624V134.498L191.02 124.761C190.988 120.969 190.896 118.522 190.744 117.421C190.705 116.64 190.465 115.883 190.047 115.222C189.544 114.757 188.919 114.444 188.245 114.321C187.348 114.089 185.135 113.907 181.607 113.775L181.205 113.426V110.934L181.613 110.585ZM323.985 110.585L324.435 111.036C324.135 114.031 323.985 119.255 323.985 126.707L323.582 127.11H321.24L320.837 126.659L320.285 122.064C320.166 120.549 319.965 119.041 319.684 117.547C319.584 117.076 319.328 116.653 318.957 116.346C318.625 116.097 317.544 115.897 315.714 115.745C313.884 115.593 311.837 115.509 309.575 115.493H300.126C299.858 123.013 299.724 127.356 299.724 128.521V157.624L299.826 167.355C299.858 171.119 299.95 173.558 300.102 174.671C300.134 175.453 300.375 176.212 300.799 176.87C301.311 177.322 301.932 177.632 302.601 177.771C303.498 178.019 305.728 178.219 309.292 178.371L309.641 178.672V181.134L309.292 181.531C300.775 181.266 296.016 181.134 295.014 181.134C293.949 181.134 289.206 181.266 280.784 181.531L280.382 181.134V178.642L280.784 178.341C282.865 178.301 284.941 178.135 287.001 177.843C287.737 177.756 288.441 177.489 289.05 177.068C289.522 176.487 289.823 175.786 289.921 175.043C290.153 174.01 290.269 171.714 290.269 168.154L290.371 157.624V128.509C290.371 127.977 290.237 123.634 289.969 115.481H282.581C279.517 115.481 276.872 115.547 274.646 115.679C272.419 115.811 271.13 116.152 270.777 116.7C270.429 117.249 270.105 119.037 269.804 122.064L269.306 126.659L268.855 127.11H266.561L266.164 126.707C266.096 118.698 265.946 113.475 265.714 111.036L266.164 110.585C271.955 110.85 281.589 110.982 295.069 110.982C308.788 110.986 318.427 110.854 323.985 110.585ZM330.034 110.934L330.436 110.585C341.853 110.786 349.159 110.886 352.355 110.886C363.271 110.886 372.988 110.786 381.505 110.585L381.758 110.934C380.929 114.137 380.312 119.143 379.908 125.951L379.607 126.353H377.162L376.712 125.951C376.744 125.685 376.762 125.419 376.766 125.152C376.776 122.443 376.559 119.739 376.117 117.067C374.019 116.134 371.116 115.533 367.408 115.265C363.699 114.996 360.912 114.854 359.046 114.838C356.415 114.838 353.053 115.02 348.961 115.385L348.763 123.374L348.594 132.48L348.444 142.613C352.048 142.813 355.358 142.913 358.373 142.913C361.389 142.913 363.952 142.813 366.062 142.613C368.124 142.413 369.326 142.213 369.666 142.012C370.075 141.707 370.359 141.263 370.465 140.763C370.718 139.69 370.877 138.596 370.939 137.495L371.144 134.402L371.54 134.006H373.883L374.279 134.402C374.211 138.03 374.127 141.674 374.027 145.334L374.279 156.567L373.883 156.963H371.582L371.186 156.567L370.837 153.563C370.537 151.233 370.321 149.843 370.189 149.395C370.032 148.898 369.704 148.472 369.264 148.193C368.783 147.861 367.544 147.595 365.545 147.395C363.547 147.194 360.802 147.094 357.31 147.094C355.38 147.094 352.435 147.178 348.474 147.346C348.306 150.15 348.222 154.809 348.222 161.324C348.222 168.312 348.306 173.454 348.474 176.749H357.659C365.748 176.749 370.807 176.649 372.838 176.449C374.829 176.259 376.781 175.771 378.628 175.001C378.924 174.237 379.415 172.465 380.1 169.685C380.784 166.906 381.185 165.166 381.301 164.466L381.8 164.117H384.202L384.599 164.466C384.173 166.943 383.882 169.441 383.728 171.95C383.443 175.514 383.301 178.559 383.301 181.086L382.953 181.483C376.594 181.282 368.274 181.182 357.995 181.182L344.354 181.134C341.19 181.134 337.896 181.266 334.473 181.531L334.07 181.134V179.488L334.473 178.99C335.639 178.446 336.765 177.82 337.842 177.116C338.127 176.868 338.359 173.956 338.539 168.382C338.719 162.808 338.811 158.555 338.815 155.624V137.285L338.767 125.951C338.767 123.488 338.733 121.486 338.665 119.944C338.647 118.828 338.528 117.717 338.311 116.622C338.207 116.12 338.003 115.644 337.71 115.222C337.424 114.911 337.062 114.68 336.659 114.55C335.856 114.302 335.028 114.142 334.19 114.075L330.394 113.775L329.992 113.426L330.034 110.934ZM391.23 146.728C391.192 141.983 391.919 137.264 393.381 132.75C394.909 128.258 397.407 124.156 400.697 120.737C404.185 117.029 408.432 114.117 413.149 112.201C418.387 110.123 423.985 109.102 429.619 109.198C440.968 109.198 450.004 112.285 456.728 118.46C463.451 124.635 466.813 133.064 466.813 143.748C466.813 151.269 465.167 158.024 461.875 164.015C458.628 169.96 453.708 174.82 447.723 177.993C441.357 181.376 434.239 183.093 427.03 182.984C421.911 183.04 416.828 182.117 412.056 180.263C407.581 178.506 403.584 175.718 400.39 172.124C397.174 168.526 394.787 164.265 393.399 159.642C392.043 155.468 391.312 151.116 391.23 146.728ZM401.616 143.436C401.673 147.873 402.338 152.281 403.592 156.537C404.751 160.888 406.753 164.97 409.485 168.55C411.864 171.707 414.95 174.262 418.495 176.011C422.534 177.792 426.929 178.62 431.339 178.429C435.75 178.239 440.057 177.035 443.927 174.911C447.952 172.549 451.013 168.879 453.112 163.901C455.272 158.586 456.341 152.891 456.253 147.154C456.342 140.896 455.114 134.689 452.649 128.936C450.246 123.514 446.842 119.569 442.438 117.103C437.932 114.619 432.859 113.347 427.715 113.408C419.626 113.408 413.253 115.937 408.596 120.995C403.938 126.053 401.612 133.533 401.616 143.436ZM470.705 110.934L471.102 110.585C479.359 110.85 484.118 110.982 485.38 110.982C486.513 110.982 491.288 110.85 499.706 110.585L500.102 110.934V113.426L499.706 113.775C497.407 113.843 495.635 113.943 494.39 114.075C493.439 114.12 492.51 114.375 491.669 114.82C491.104 115.188 490.73 116.045 490.545 117.391C490.334 119.255 490.242 121.131 490.269 123.007L490.167 134.486V150.362C490.167 155.568 490.275 159.404 490.491 161.871C490.633 163.995 491.105 166.085 491.891 168.064C492.613 169.754 493.734 171.244 495.159 172.407C497.028 173.82 499.169 174.833 501.448 175.38C504.476 176.183 507.601 176.569 510.734 176.527C514.212 176.556 517.673 176.043 520.994 175.007C524.169 173.99 526.59 172.517 528.256 170.586C530.03 168.402 531.162 165.767 531.523 162.976C532.116 158.643 532.378 154.272 532.304 149.899V134.522C532.304 131.927 532.262 128.357 532.178 123.812C532.094 119.267 531.894 116.664 531.577 116.003C531.217 115.28 530.591 114.725 529.829 114.454C528.98 114.105 526.626 113.905 522.766 113.853L522.363 113.451V111.108L522.766 110.657C527.691 110.922 531.635 111.054 534.599 111.054C537.13 111.054 541.058 110.922 546.384 110.657L546.834 111.054V113.457L546.384 113.859C544.34 113.85 542.297 113.974 540.269 114.231C539.542 114.319 538.852 114.603 538.275 115.054C537.835 115.528 537.541 116.118 537.428 116.754C537.244 117.519 537.118 119.722 537.05 123.362L536.899 134.594V149.767C536.967 154.552 536.735 159.337 536.203 164.093C535.866 167.146 534.788 170.071 533.061 172.611C531.492 174.812 529.548 176.722 527.319 178.251C524.724 179.921 521.845 181.102 518.825 181.735C515.28 182.554 511.651 182.957 508.013 182.936C503.842 182.999 499.683 182.477 495.657 181.387C492.081 180.357 489.26 178.994 487.194 177.296C485.338 175.854 483.821 174.023 482.749 171.932C481.792 169.835 481.201 167.59 481.001 165.295C480.736 162.748 480.602 158.861 480.598 153.636V134.498L480.496 124.761C480.464 120.969 480.372 118.522 480.22 117.421C480.181 116.64 479.941 115.883 479.523 115.222C479.02 114.757 478.395 114.444 477.721 114.321C476.824 114.089 474.612 113.907 471.084 113.775L470.687 113.426L470.705 110.934ZM552.673 163.955L553.069 163.553H555.514L555.917 163.955C556.081 168.216 556.305 170.819 556.589 171.764C556.874 172.709 557.773 173.71 559.286 174.767C561.139 175.963 563.183 176.833 565.329 177.338C567.812 178 570.37 178.335 572.94 178.335C576.213 178.387 579.458 177.723 582.448 176.389C585.157 175.179 587.443 173.188 589.014 170.671C590.584 168.13 591.396 165.194 591.356 162.207C591.402 160.234 591.018 158.275 590.233 156.465C589.544 154.908 588.461 153.559 587.092 152.548C585.697 151.543 584.132 150.799 582.472 150.35C580.742 149.869 578.164 149.345 574.736 148.776C571.408 148.243 568.805 147.761 566.927 147.328C564.98 146.877 563.09 146.208 561.293 145.334C559.529 144.508 557.943 143.345 556.625 141.91C555.309 140.419 554.29 138.69 553.622 136.817C552.863 134.747 552.483 132.558 552.499 130.353C552.499 124.13 554.661 119.031 558.986 115.054C563.311 111.078 569.117 109.09 576.406 109.09C579.606 109.118 582.794 109.478 585.92 110.165C589.147 110.818 592.276 111.884 595.231 113.336L595.579 113.937C594.846 117 594.398 121.359 594.234 127.014L593.783 127.416H591.188L590.786 127.068C590.718 123.063 590.617 120.55 590.485 119.529C590.353 118.508 588.832 117.219 585.92 115.661C583.013 114.128 579.771 113.339 576.484 113.366C573.747 113.347 571.039 113.925 568.549 115.06C566.129 116.149 564.156 118.034 562.957 120.4C561.727 122.687 561.075 125.24 561.058 127.837C561.022 129.643 561.416 131.432 562.206 133.056C562.889 134.48 563.907 135.717 565.173 136.66C566.453 137.573 567.891 138.241 569.414 138.631C571.016 139.063 573.969 139.596 578.274 140.228C584.164 141.061 588.449 142.063 591.128 143.232C593.796 144.405 596.042 146.364 597.567 148.848C599.239 151.651 600.072 154.873 599.97 158.135C599.97 165.222 597.083 171.129 591.308 175.854C585.534 180.58 578.536 182.942 570.315 182.942C563.427 182.942 557.386 181.711 552.192 179.248L551.892 178.599C552.245 176.521 552.505 171.64 552.673 163.955ZM206.463 224.905C207.333 225.365 208.043 226.077 208.5 226.948C209.01 227.955 209.26 229.074 209.226 230.203V237.177H206.295V234.114H200.469V237.171H197.555V230.203C197.522 229.074 197.772 227.955 198.282 226.948C198.738 226.076 199.448 225.364 200.318 224.905C201.28 224.452 202.33 224.216 203.394 224.216C204.457 224.216 205.507 224.452 206.469 224.905H206.463ZM206.283 231.753V229.951C206.349 229.078 206.069 228.215 205.502 227.548C204.914 227.025 204.154 226.736 203.367 226.736C202.58 226.736 201.82 227.025 201.231 227.548C200.669 228.217 200.391 229.08 200.457 229.951V231.753H206.283ZM212.14 224.431H217.93C219.199 224.405 220.455 224.677 221.6 225.224C222.621 225.715 223.48 226.488 224.075 227.452C224.654 228.473 224.958 229.627 224.958 230.801C224.958 231.975 224.654 233.128 224.075 234.15C223.48 235.114 222.621 235.887 221.6 236.378C220.455 236.925 219.199 237.197 217.93 237.171H212.14V224.431ZM217.78 234.75C218.897 234.808 219.992 234.426 220.831 233.687C221.568 232.907 221.978 231.874 221.978 230.801C221.978 229.728 221.568 228.695 220.831 227.915C219.992 227.175 218.897 226.794 217.78 226.851H215.089V234.75H217.78ZM239.428 224.431L233.926 237.177H231.013L225.517 224.431H228.7L232.574 233.531L236.509 224.431H239.428ZM243.351 236.534C242.319 235.993 241.457 235.178 240.858 234.18C240.267 233.152 239.956 231.987 239.956 230.801C239.956 229.615 240.267 228.45 240.858 227.422C241.458 226.424 242.32 225.609 243.351 225.068C244.457 224.506 245.681 224.213 246.922 224.213C248.162 224.213 249.386 224.506 250.493 225.068C251.531 225.622 252.4 226.448 253.006 227.458C253.611 228.468 253.931 229.623 253.931 230.801C253.931 231.978 253.611 233.134 253.006 234.144C252.4 235.153 251.531 235.98 250.493 236.534C249.386 237.097 248.163 237.39 246.922 237.39C245.68 237.39 244.457 237.097 243.351 236.534ZM248.967 234.36C249.568 234.019 250.063 233.518 250.396 232.912C250.734 232.263 250.91 231.542 250.91 230.81C250.91 230.078 250.734 229.357 250.396 228.708C250.063 228.102 249.568 227.601 248.967 227.26C248.341 226.919 247.64 226.741 246.928 226.741C246.215 226.741 245.514 226.919 244.888 227.26C244.287 227.601 243.792 228.102 243.459 228.708C243.121 229.357 242.945 230.078 242.945 230.81C242.945 231.542 243.121 232.263 243.459 232.912C243.792 233.518 244.287 234.019 244.888 234.36C245.514 234.7 246.215 234.877 246.928 234.877C247.64 234.877 248.341 234.7 248.967 234.36ZM258.698 236.546C257.674 236.004 256.818 235.192 256.223 234.198C255.632 233.163 255.321 231.992 255.321 230.801C255.321 229.609 255.632 228.439 256.223 227.404C256.817 226.409 257.673 225.597 258.698 225.055C259.705 224.548 260.81 224.261 261.937 224.216C263.064 224.17 264.188 224.366 265.233 224.791C266.104 225.165 266.873 225.739 267.48 226.467L265.587 228.215C265.201 227.741 264.712 227.36 264.158 227.101C263.603 226.842 262.998 226.712 262.386 226.719C261.648 226.705 260.92 226.883 260.272 227.236C259.662 227.573 259.161 228.074 258.824 228.684C258.486 229.333 258.31 230.054 258.31 230.786C258.31 231.518 258.486 232.239 258.824 232.888C259.161 233.497 259.662 233.999 260.272 234.336C260.92 234.688 261.648 234.866 262.386 234.852C262.999 234.86 263.606 234.729 264.16 234.468C264.715 234.206 265.203 233.822 265.587 233.345L267.48 235.093C266.875 235.832 266.1 236.413 265.221 236.787C264.272 237.192 263.25 237.396 262.218 237.387C260.993 237.406 259.782 237.117 258.698 236.546ZM278.274 224.905C279.143 225.365 279.853 226.077 280.31 226.948C280.82 227.955 281.07 229.074 281.037 230.203V237.177H278.087V234.114H272.261V237.171H269.366V230.203C269.332 229.074 269.582 227.955 270.092 226.948C270.549 226.076 271.259 225.364 272.129 224.905C273.091 224.452 274.141 224.216 275.204 224.216C276.268 224.216 277.318 224.452 278.28 224.905H278.274ZM278.093 231.753V229.951C278.16 229.078 277.879 228.215 277.313 227.548C276.724 227.025 275.964 226.736 275.177 226.736C274.39 226.736 273.63 227.025 273.042 227.548C272.479 228.217 272.201 229.08 272.267 229.951V231.753H278.093ZM293.236 227.987C292.153 227.365 290.96 226.957 289.723 226.785V237.177H286.785V226.785C285.543 226.959 284.344 227.367 283.253 227.987L282.25 225.782C283.135 225.249 284.092 224.845 285.091 224.581C286.119 224.313 287.177 224.177 288.239 224.179C289.311 224.177 290.379 224.312 291.416 224.581C292.413 224.842 293.366 225.246 294.246 225.782L293.236 227.987ZM306.007 236.084C305.308 236.537 304.536 236.864 303.724 237.051C302.769 237.287 301.789 237.404 300.805 237.399C299.694 237.426 298.587 237.263 297.531 236.919C296.741 236.668 296.035 236.203 295.495 235.573C295.04 235.016 294.796 234.316 294.804 233.597C294.794 232.951 294.992 232.319 295.369 231.795C295.759 231.262 296.298 230.857 296.919 230.63C296.438 230.38 296.036 230.002 295.759 229.536C295.485 229.066 295.344 228.531 295.351 227.987C295.349 227.303 295.572 226.638 295.988 226.095C296.49 225.469 297.158 224.997 297.916 224.731C298.93 224.366 300.004 224.193 301.081 224.221C301.888 224.221 302.693 224.303 303.484 224.467C304.193 224.606 304.883 224.829 305.538 225.134L304.703 227.386C303.592 226.866 302.38 226.599 301.153 226.605C300.416 226.56 299.679 226.707 299.015 227.032C298.799 227.139 298.618 227.305 298.491 227.509C298.363 227.714 298.295 227.95 298.294 228.191C298.291 228.386 298.336 228.578 298.423 228.752C298.511 228.925 298.64 229.075 298.799 229.188C299.238 229.456 299.751 229.58 300.264 229.543H303.742V231.873H300.084C299.489 231.839 298.896 231.972 298.372 232.258C298.181 232.372 298.025 232.535 297.919 232.731C297.814 232.926 297.763 233.147 297.772 233.369C297.771 233.622 297.844 233.871 297.982 234.084C298.119 234.297 298.315 234.466 298.546 234.57C299.301 234.905 300.125 235.051 300.949 234.997C301.712 234.996 302.471 234.895 303.208 234.696C303.889 234.528 304.535 234.241 305.118 233.849L306.007 236.084ZM308.974 236.997C308.161 236.784 307.393 236.424 306.71 235.934L307.713 233.711C308.305 234.136 308.962 234.462 309.659 234.678C310.388 234.919 311.15 235.042 311.917 235.045C312.558 235.088 313.199 234.96 313.773 234.672C313.954 234.577 314.105 234.434 314.211 234.26C314.316 234.085 314.373 233.885 314.374 233.681C314.377 233.536 314.346 233.393 314.285 233.262C314.223 233.13 314.133 233.015 314.02 232.924C313.749 232.706 313.439 232.543 313.107 232.444C312.738 232.324 312.238 232.189 311.605 232.041C310.791 231.86 309.989 231.629 309.202 231.351C308.586 231.122 308.038 230.739 307.611 230.239C307.145 229.666 306.908 228.941 306.944 228.203C306.936 227.487 307.146 226.785 307.544 226.191C307.994 225.55 308.62 225.053 309.346 224.761C310.287 224.384 311.295 224.204 312.308 224.233C313.118 224.229 313.925 224.326 314.71 224.521C315.429 224.693 316.116 224.976 316.747 225.362L315.834 227.602C314.765 226.965 313.547 226.619 312.302 226.599C311.675 226.56 311.05 226.7 310.5 227.002C310.315 227.109 310.161 227.263 310.056 227.449C309.95 227.635 309.896 227.845 309.899 228.059C309.899 228.272 309.965 228.48 310.087 228.654C310.21 228.828 310.383 228.96 310.584 229.032C311.257 229.302 311.955 229.503 312.668 229.633C313.482 229.815 314.285 230.045 315.071 230.323C315.684 230.551 316.23 230.927 316.663 231.417C317.13 231.982 317.368 232.702 317.329 233.435C317.338 234.145 317.128 234.841 316.729 235.429C316.277 236.068 315.651 236.564 314.927 236.859C313.984 237.235 312.974 237.415 311.959 237.387C310.951 237.402 309.945 237.27 308.974 236.997ZM335.542 231.705C335.96 232.284 336.171 232.986 336.142 233.699C336.166 234.204 336.058 234.706 335.831 235.157C335.604 235.609 335.264 235.994 334.845 236.276C333.698 236.948 332.376 237.262 331.049 237.177H324.441V224.431H330.694C331.96 224.347 333.22 224.66 334.298 225.326C334.691 225.589 335.012 225.948 335.23 226.368C335.448 226.787 335.558 227.255 335.548 227.728C335.557 228.313 335.401 228.887 335.097 229.386C334.796 229.875 334.366 230.272 333.854 230.534C334.525 230.739 335.115 231.148 335.542 231.705ZM327.403 226.653V229.657H330.334C330.912 229.693 331.489 229.559 331.992 229.272C332.176 229.149 332.324 228.98 332.423 228.782C332.522 228.584 332.568 228.364 332.556 228.143C332.568 227.924 332.522 227.705 332.423 227.509C332.324 227.313 332.175 227.146 331.992 227.026C331.487 226.745 330.911 226.615 330.334 226.653H327.403ZM332.605 234.594C332.804 234.467 332.965 234.288 333.071 234.076C333.176 233.865 333.223 233.629 333.205 233.393C333.205 232.336 332.422 231.807 330.857 231.807H327.415V234.955H330.857C331.461 234.998 332.066 234.873 332.605 234.594ZM349.796 224.431V237.177H346.937V235.627C346.485 236.152 345.931 236.578 345.309 236.881C344.687 237.183 344.009 237.355 343.318 237.387C342.627 237.418 341.936 237.308 341.289 237.064C340.642 236.819 340.052 236.445 339.554 235.964C338.713 235.011 338.293 233.655 338.293 231.897V224.431H341.242V231.801C341.182 232.632 341.439 233.454 341.963 234.102C342.215 234.364 342.52 234.568 342.858 234.702C343.196 234.836 343.558 234.895 343.921 234.876C344.315 234.895 344.708 234.83 345.075 234.688C345.442 234.545 345.776 234.327 346.054 234.048C346.634 233.366 346.921 232.483 346.852 231.591V224.431H349.796ZM362.098 227.987C361.014 227.365 359.821 226.958 358.584 226.785V237.177H355.634V226.785C354.392 226.959 353.193 227.367 352.102 227.987L351.099 225.782C351.985 225.25 352.941 224.845 353.94 224.581C354.968 224.313 356.026 224.178 357.088 224.179C358.16 224.177 359.228 224.312 360.266 224.581C361.262 224.842 362.215 225.246 363.095 225.782L362.098 227.987ZM374.844 236.084C374.145 236.536 373.373 236.864 372.561 237.051C371.604 237.287 370.622 237.404 369.636 237.399C368.525 237.426 367.418 237.263 366.362 236.919C365.572 236.668 364.866 236.203 364.326 235.573C363.872 235.015 363.628 234.316 363.635 233.597C363.625 232.951 363.823 232.319 364.2 231.795C364.588 231.263 365.125 230.857 365.744 230.63C365.264 230.381 364.864 230.002 364.59 229.536C364.314 229.067 364.171 228.531 364.176 227.987C364.174 227.303 364.398 226.638 364.813 226.095C365.317 225.468 365.987 224.995 366.747 224.731C367.761 224.366 368.835 224.193 369.912 224.221C370.72 224.221 371.525 224.303 372.315 224.467C373.026 224.605 373.718 224.829 374.375 225.134L373.564 227.386C372.454 226.866 371.241 226.599 370.014 226.605C369.277 226.56 368.54 226.707 367.876 227.032C367.66 227.139 367.478 227.304 367.351 227.509C367.224 227.714 367.156 227.95 367.155 228.191C367.145 228.389 367.183 228.586 367.267 228.765C367.35 228.944 367.477 229.1 367.636 229.218C368.076 229.486 368.588 229.61 369.101 229.573H372.579V231.903H368.921C368.326 231.869 367.733 232.002 367.209 232.288C367.019 232.402 366.862 232.565 366.757 232.761C366.651 232.956 366.6 233.177 366.609 233.399C366.608 233.652 366.681 233.901 366.819 234.114C366.956 234.327 367.152 234.496 367.383 234.6C368.138 234.934 368.963 235.081 369.786 235.027C370.549 235.026 371.308 234.925 372.045 234.726C372.726 234.558 373.372 234.271 373.955 233.879L374.844 236.084ZM385.38 224.905C386.252 225.363 386.964 226.075 387.422 226.948C387.931 227.955 388.181 229.074 388.149 230.203V237.177H385.199V234.114H379.373V237.171H376.46V230.203C376.426 229.074 376.675 227.955 377.186 226.948C377.643 226.076 378.353 225.364 379.223 224.905C380.185 224.452 381.235 224.216 382.298 224.216C383.362 224.216 384.412 224.452 385.374 224.905H385.38ZM385.199 231.753V229.951C385.266 229.078 384.985 228.215 384.419 227.548C383.83 227.025 383.07 226.736 382.283 226.736C381.496 226.736 380.736 227.025 380.148 227.548C379.586 228.217 379.308 229.08 379.373 229.951V231.753H385.199ZM402.457 224.431V237.177H399.598V235.627C399.146 236.152 398.592 236.578 397.97 236.881C397.348 237.183 396.67 237.355 395.979 237.387C395.288 237.418 394.597 237.308 393.95 237.064C393.303 236.819 392.713 236.445 392.215 235.964C391.374 235.011 390.954 233.655 390.954 231.897V224.431H393.903V231.801C393.843 232.632 394.1 233.454 394.624 234.102C394.876 234.364 395.181 234.568 395.519 234.702C395.857 234.836 396.219 234.895 396.582 234.876C396.976 234.895 397.369 234.83 397.736 234.688C398.103 234.545 398.437 234.327 398.715 234.048C399.293 233.368 399.581 232.487 399.513 231.597V224.431H402.457Z" fill="white"/>
<path d="M505.238 189.544V219.86L504.992 220.106C453.598 272.701 386.569 299.01 300.102 300.584C213.605 299.01 146.576 272.701 95.1526 220.094L94.9063 219.848V189.544H112.062V214.087C160.752 260.195 222.279 283.579 300.102 285.567C377.895 283.579 439.428 260.195 488.137 214.087V189.544H505.238Z" fill="white"/>
<path d="M504.926 15.703V100.77H487.951V31.2364L374.135 17.7994L299.916 43.2199L299.64 43.1297L225.697 17.7994L111.911 31.2364V100.77H94.9063V15.703L95.6752 15.6129L227.577 0.331818L299.916 24.4548L372.261 0.331818L372.441 0.361851L504.926 15.703Z" fill="white"/>
</g>
<defs>
<clipPath id="clip0_21_248">
<rect width="600" height="300.336" fill="white" transform="translate(0 0.331818)"/>
</clipPath>
</defs>
</svg>
