<svg id="Слой_1" data-name="Слой 1" xmlns="http://www.w3.org/2000/svg" viewBox="0 0 998.88 500"><title>UZ</title><polygon points="840.74 25.59 840.74 167.21 812.48 167.21 812.48 51.45 623 29.08 499.44 71.4 498.98 71.25 375.88 29.08 186.45 51.45 186.45 167.21 158.14 167.21 158.14 25.59 159.42 25.44 379.01 0 499.44 40.16 619.88 0 620.18 0.05 840.74 25.59" style="fill:#1d1d1b"/><path d="M841.56,315.14v50.47l-.41.41C755.59,453.58,644,497.38,500.05,500c-144-2.62-255.59-46.42-341.2-134l-.41-.41V315.14H187V356C268.06,432.76,370.49,471.69,500.05,475,629.56,471.69,732,432.76,813.09,356V315.14Z" transform="translate(-0.56 0)" style="fill:#1d1d1b"/><polygon points="739.54 126.44 739.54 129.36 499.49 132.54 259.34 129.36 259.34 126.44 499.44 121.1 499.49 121.1 739.54 126.44" style="fill:#1d1d1b"/><polygon points="634.32 142.18 499.52 149.21 364.57 142.18 364.62 139.26 499.47 137.62 634.26 139.26 634.32 142.18" style="fill:#1d1d1b"/><polygon points="508.26 104.74 499.44 118.13 490.62 104.74 499.44 84.53 508.26 104.74" style="fill:#1d1d1b"/><polygon points="644.88 347.05 644.78 349.97 354.05 349.97 354 347.05 499.31 337.92 644.88 347.05" style="fill:#1d1d1b"/><path d="M.56,184.16l.66-.58q15.21.66,23.69.66,9.39,0,25.35-.58,5.9-.17,8.56-.17,21,0,28.51,7.65a25,25,0,0,1,7.48,18.12A28.44,28.44,0,0,1,91.15,223a32.58,32.58,0,0,1-10.8,11.51q-7.15,4.78-19.7,7.19Q63,244.91,69,252.89l11.8,15.62q5.73,7.73,12.3,16.33t8.48,9.72a10.53,10.53,0,0,0,3.28,1.37,27.25,27.25,0,0,0,4.37.25l.66.67v3.9l-.75.75a77.49,77.49,0,0,0-9.47-.5q-5.9,0-12.88.5-5.73-7-18-24.18-14.29-19.95-29.25-37l.83-2.58q4.32.25,6.73.25,14.38,0,22.52-6.9T77.77,212q0-11-7.31-16.58t-19.78-5.61a55,55,0,0,0-16.45,2.41Q33,194,33,223.39v38.48l.08,16.2a112.25,112.25,0,0,0,.5,12.13,7.72,7.72,0,0,0,1.2,3.66,6.23,6.23,0,0,0,3,1.54q2.24.62,11.05,1l.67.5V301l-.67.66q-.42,0-14.63-.5Q28.32,301,25,301q-2.58,0-23.77.66L.56,301v-4.15l.66-.5a86.14,86.14,0,0,0,10.31-.83A7.62,7.62,0,0,0,15,294.24a6.53,6.53,0,0,0,1.41-3.37A76.36,76.36,0,0,0,17,279.4l.08-17.53V223.39l-.17-16.21q-.08-9.47-.46-12.22a7.53,7.53,0,0,0-1.16-3.66,6,6,0,0,0-3-1.5q-2.25-.58-11.05-.91l-.66-.58Z" transform="translate(-0.56 0)" style="fill:#1d1d1b"/><path d="M115.66,183.58l10.39.33q10.22.33,13.38.33,2.83,0,23.85-.66l.66.58v4.15l-.66.58q-5.74.17-8.85.5a10.75,10.75,0,0,0-4.53,1.24q-1.41.92-1.87,4.28a73.45,73.45,0,0,0-.46,9.35l-.17,19.11v38.48l.08,16.2a112.5,112.5,0,0,0,.5,12.13,7.78,7.78,0,0,0,1.2,3.66,6.23,6.23,0,0,0,3,1.54q2.24.62,11.05,1l.66.5V301l-.66.66q-.42,0-14.63-.5-5.9-.17-9.23-.17-2.58,0-23.77.66L115,301v-4.15l.67-.5a86.19,86.19,0,0,0,10.31-.83,7.63,7.63,0,0,0,3.45-1.29,6.53,6.53,0,0,0,1.41-3.37,77.08,77.08,0,0,0,.62-11.47l.08-17.53V223.39l-.17-16.21q-.08-9.47-.46-12.22a7.55,7.55,0,0,0-1.16-3.66,6,6,0,0,0-3-1.5q-2.24-.58-11.05-.91l-.67-.58v-4.15Z" transform="translate(-0.56 0)" style="fill:#1d1d1b"/><path d="M292.6,255.71v2.49l-.33,1-4.07,2.41a5.16,5.16,0,0,0-1.75,1.41,28.64,28.64,0,0,0-.62,4.95q-.37,4.44-.37,10.84a146.77,146.77,0,0,0,.91,15.71l-.5.83a129.76,129.76,0,0,1-46.79,8.73,77.47,77.47,0,0,1-33.33-7,55.18,55.18,0,0,1-23.6-20.69q-8.73-13.71-8.73-32.58,0-28.75,19.66-45.71t51.32-17q23.27,0,41.81,7.89l.58.91q-1.5,5.57-3.49,23.35l-.66.58H278.8l-.66-.67-.42-8.81a27.25,27.25,0,0,0-.54-5.07,5.85,5.85,0,0,0-1.79-2q-1.5-1.21-7.69-3.82a62.29,62.29,0,0,0-12.42-3.82,70.63,70.63,0,0,0-13.38-1.2q-15.21,0-26.93,6.32a40.85,40.85,0,0,0-17.66,18.41,60.12,60.12,0,0,0-5.94,26.89,64.28,64.28,0,0,0,6.4,28.46,48.52,48.52,0,0,0,18.37,20.57q12,7.4,27.84,7.4a75.11,75.11,0,0,0,14.09-1.37,41.93,41.93,0,0,0,11.84-3.86q.75-2.66.75-10.72v-9.22q0-6.57-.83-8.19T265.71,261q-3.28-.66-14.17-.83l-.75-.75v-3.66l.75-.75,5.07.17q13,.42,21.28.42,4.74,0,13.88-.5Z" transform="translate(-0.56 0)" style="fill:#1d1d1b"/><path d="M302.91,183.58q21.19.66,23.77.66,2.74,0,23.85-.66l.66.58v4.15l-.66.58q-5.74.17-8.85.5a10.75,10.75,0,0,0-4.53,1.24q-1.41.92-1.87,4.28a73.45,73.45,0,0,0-.46,9.35l-.17,19.11V235q18.2.5,34.49.5,22.27,0,33.91-.5V223.39l-.17-16.21a113.68,113.68,0,0,0-.5-12.22,8.21,8.21,0,0,0-1.16-3.66,5.75,5.75,0,0,0-3-1.5q-2.24-.58-11.14-.91l-.58-.58v-4.15l.58-.58q21.27.66,23.85.66,2.83,0,23.85-.66l.66.58v4.15l-.66.58q-5.82.17-8.93.5a10.75,10.75,0,0,0-4.53,1.24q-1.41.92-1.83,4.28a91,91,0,0,0-.5,9.35l-.17,19.11v38.48l.17,16.2a112.5,112.5,0,0,0,.5,12.13,7.78,7.78,0,0,0,1.2,3.66,6.18,6.18,0,0,0,3,1.54q2.2.62,11.1,1l.66.5V301l-.66.66q-21.28-.66-23.85-.66t-23.85.66l-.58-.66v-4.15l.58-.5a87,87,0,0,0,10.39-.83,7.27,7.27,0,0,0,3.41-1.29,7,7,0,0,0,1.41-3.37q.58-2.58.58-11.47l.17-17.53V242.92q-24.6-.5-34.49-.5-10.14,0-33.91.5v18.95l.08,16.2a112.5,112.5,0,0,0,.5,12.13,7.78,7.78,0,0,0,1.2,3.66,6.23,6.23,0,0,0,3,1.54q2.24.62,11.05,1l.66.5V301l-.66.66q-21.19-.66-23.85-.66t-23.77.66l-.67-.66v-4.15l.67-.5a86.19,86.19,0,0,0,10.31-.83,7.63,7.63,0,0,0,3.45-1.29,6.53,6.53,0,0,0,1.41-3.37,77.08,77.08,0,0,0,.62-11.47l.08-17.53V223.39l-.17-16.21q-.08-9.47-.46-12.22a7.55,7.55,0,0,0-1.16-3.66,6,6,0,0,0-3-1.5q-2.24-.58-11.05-.91l-.67-.58v-4.15Z" transform="translate(-0.56 0)" style="fill:#1d1d1b"/><path d="M539.93,183.58l.75.75q-.75,7.48-.75,26.09l-.67.67h-3.9l-.67-.75-.92-7.65a70.3,70.3,0,0,0-1-7.52,3.55,3.55,0,0,0-1.21-2q-.83-.62-5.4-1t-10.22-.42H500.21q-.67,18.78-.67,21.69v48.45l.17,16.2q.08,9.4.46,12.18a7.3,7.3,0,0,0,1.16,3.66,6.52,6.52,0,0,0,3,1.5q2.24.62,11.14,1l.58.5V301l-.58.66q-21.27-.66-23.77-.66-2.66,0-23.69.66l-.67-.66v-4.15l.67-.5a85.41,85.41,0,0,0,10.35-.83,7.55,7.55,0,0,0,3.41-1.29,6.73,6.73,0,0,0,1.45-3.37q.58-2.58.58-11.47l.17-17.53V213.41q0-1.33-.67-21.69H471q-7.65,0-13.21.33t-6.44,1.7q-.87,1.37-1.62,8.93l-.83,7.65-.75.75h-3.82l-.66-.67q-.17-20-.75-26.09l.75-.75q14.46.66,48.12.66Q526.05,184.24,539.93,183.58Z" transform="translate(-0.56 0)" style="fill:#1d1d1b"/><path d="M550,184.16l.67-.58q28.51.5,36.49.5,27.26,0,48.53-.5l.42.58q-2.07,8-3.08,25l-.5.67h-4.07l-.75-.67a12.31,12.31,0,0,0,.09-1.33,80.68,80.68,0,0,0-1.08-13.46q-5.24-2.33-14.5-3t-13.92-.71q-6.57,0-16.79.91l-.33,13.3-.25,15.21-.25,16.87q9,.5,16.53.5t12.8-.5q5.15-.5,6-1a3.5,3.5,0,0,0,1.33-2.08,31.59,31.59,0,0,0,.79-5.44l.34-5.15.66-.66H623l.66.66q-.17,9.06-.42,18.2l.42,18.7-.66.66h-3.83l-.66-.66-.58-5q-.75-5.82-1.08-6.94a3.67,3.67,0,0,0-1.54-2q-1.2-.83-6.19-1.33t-13.71-.5q-4.82,0-14.71.42-.42,7-.42,23.27,0,17.45.42,25.68h15.29q20.2,0,25.27-.5a33.32,33.32,0,0,0,9.64-2.41q.74-1.91,2.45-8.85t2-8.69l.83-.58h4l.66.58a115.41,115.41,0,0,0-1.45,12.46q-.71,8.9-.71,15.21l-.58.66q-15.88-.5-41.55-.5L573.84,301q-7.9,0-16.45.66l-.67-.66v-2.74l.67-.83a45,45,0,0,0,5.61-3.12q.71-.62,1.16-14.54t.46-21.24V228l-.08-18.87q0-6.15-.17-10a31.12,31.12,0,0,0-.59-5.53,6.34,6.34,0,0,0-1-2.33,4.08,4.08,0,0,0-1.75-1.12,19.08,19.08,0,0,0-4.11-.79l-6.32-.5-.67-.58Z" transform="translate(-0.56 0)" style="fill:#1d1d1b"/><path d="M651.88,243.75a73.61,73.61,0,0,1,3.58-23.27,53.87,53.87,0,0,1,12.18-20,58.91,58.91,0,0,1,20.73-14.21,71.08,71.08,0,0,1,27.42-5q28.34,0,45.13,15.42t16.79,42.1q0,18.78-8.22,33.74a57.58,57.58,0,0,1-23.56,23.27,71.12,71.12,0,0,1-34.45,8.31,66.85,66.85,0,0,1-24.93-4.53A50.83,50.83,0,0,1,667.13,286a54.86,54.86,0,0,1-11.64-20.78A74.11,74.11,0,0,1,651.88,243.75Zm17.29-5.48a80.84,80.84,0,0,0,3.29,21.81,57.27,57.27,0,0,0,9.81,20,42.11,42.11,0,0,0,15,12.42,47.86,47.86,0,0,0,42.34-1.83q10.05-5.9,15.29-18.33a71.14,71.14,0,0,0,5.23-27.88,74.34,74.34,0,0,0-6-30.33q-6-13.54-17-19.7a49.55,49.55,0,0,0-24.51-6.15q-20.2,0-31.83,12.63T669.17,238.26Z" transform="translate(-0.56 0)" style="fill:#1d1d1b"/><path d="M784.19,184.16l.66-.58q20.62.66,23.77.66,2.83,0,23.85-.66l.66.58v4.15l-.66.58q-5.74.17-8.85.5a10.77,10.77,0,0,0-4.53,1.24q-1.41.92-1.87,4.28a73.53,73.53,0,0,0-.46,9.35l-.17,19.11v26.43q0,13,.54,19.16a34.09,34.09,0,0,0,2.33,10.31,18.93,18.93,0,0,0,5.44,7.23,28.32,28.32,0,0,0,10.47,4.95,57.29,57.29,0,0,0,15.46,1.91,55.84,55.84,0,0,0,17.08-2.53q7.93-2.54,12.09-7.36a25.24,25.24,0,0,0,5.44-12.67A142.86,142.86,0,0,0,886.74,249v-25.6q0-6.48-.21-17.83t-1-13a5.2,5.2,0,0,0-2.91-2.58q-2.12-.87-11.76-1l-.67-.67v-3.9l.67-.75q12.3.66,19.7.66,6.32,0,19.62-.66l.75.66v4l-.75.67a78.14,78.14,0,0,0-10.18.62,6.69,6.69,0,0,0-3.32,1.37,5.59,5.59,0,0,0-1.41,2.83q-.46,1.91-.63,11l-.25,18.7v25.26a190.15,190.15,0,0,1-1.16,23.85A31.32,31.32,0,0,1,888,286.84a38.45,38.45,0,0,1-9.56,9.39A42.08,42.08,0,0,1,864.3,302a78,78,0,0,1-18,2,74.39,74.39,0,0,1-20.57-2.58q-8.93-2.57-14.09-6.81a26.78,26.78,0,0,1-7.4-8.93,33.67,33.67,0,0,1-2.91-11.05q-.66-6.36-.67-19.41V223.39l-.17-16.21q-.08-9.47-.46-12.22a7.56,7.56,0,0,0-1.16-3.66,6,6,0,0,0-3-1.5q-2.24-.58-11.05-.91l-.66-.58Z" transform="translate(-0.56 0)" style="fill:#1d1d1b"/><path d="M920.65,272.42l.66-.67h4.07l.67.67q.41,10.64,1.12,13t4.49,5a32.09,32.09,0,0,0,10.06,4.28,49.22,49.22,0,0,0,12.67,1.66,37.4,37.4,0,0,0,15.83-3.24,24.81,24.81,0,0,0,10.93-9.52,26.14,26.14,0,0,0,3.9-14.09,22.71,22.71,0,0,0-1.87-9.56,16.31,16.31,0,0,0-5.23-6.52,23.78,23.78,0,0,0-7.69-3.66q-4.32-1.2-12.88-2.62-8.31-1.33-13-2.41a44.4,44.4,0,0,1-9.35-3.32,24.91,24.91,0,0,1-7.77-5.7,26,26,0,0,1-5-8.48,30.61,30.61,0,0,1-1.87-10.76q0-15.54,10.8-25.47t29-9.93A77.05,77.05,0,0,1,976,182.87a63.88,63.88,0,0,1,15.5,5.28l.58,1q-1.83,7.65-2.24,21.77l-.75.67h-4.32l-.67-.58q-.17-10-.5-12.55t-7.56-6.4a33.1,33.1,0,0,0-15.71-3.82,31.31,31.31,0,0,0-13.21,2.83,19.33,19.33,0,0,0-9.31,8.89,26.5,26.5,0,0,0-3.16,12.38,19,19,0,0,0,1.91,8.69,16.27,16.27,0,0,0,4.94,6,21.23,21.23,0,0,0,7.06,3.28q4,1.08,14.75,2.66,14.71,2.08,21.4,5a23.84,23.84,0,0,1,10.72,9.35,28.44,28.44,0,0,1,4,15.46q0,17.7-14.42,29.5t-34.95,11.8q-17.2,0-30.17-6.15l-.5-1.08Q920.23,291.62,920.65,272.42Z" transform="translate(-0.56 0)" style="fill:#1d1d1b"/><path d="M327.57,373.89a8.1,8.1,0,0,1,3.39,3.4,11.26,11.26,0,0,1,1.21,5.42v11.61h-4.91v-5.09h-9.7v5.09h-4.85V382.71a11.26,11.26,0,0,1,1.21-5.42,8.08,8.08,0,0,1,3.39-3.4,12,12,0,0,1,10.24,0Zm-.3,11.4v-3a5.53,5.53,0,0,0-1.3-4,5.35,5.35,0,0,0-7.11,0,5.56,5.56,0,0,0-1.29,4v3Z" transform="translate(-0.56 0)" style="fill:#1d1d1b"/><path d="M337,373.1h9.64a13.54,13.54,0,0,1,6.11,1.32,9.87,9.87,0,0,1,4.12,3.71,11.31,11.31,0,0,1,0,11.15,9.86,9.86,0,0,1-4.12,3.71,13.54,13.54,0,0,1-6.11,1.32H337Zm9.39,17.18a7.13,7.13,0,0,0,5.08-1.77,7,7,0,0,0,0-9.61,7.13,7.13,0,0,0-5.08-1.77h-4.48v13.15Z" transform="translate(-0.56 0)" style="fill:#1d1d1b"/><path d="M381.78,373.1l-9.18,21.21h-4.85L358.6,373.1h5.3l6.45,15.15,6.55-15.15Z" transform="translate(-0.56 0)" style="fill:#1d1d1b"/><path d="M387.67,393.26a10.57,10.57,0,0,1-4.15-3.92,11.29,11.29,0,0,1,0-11.25,10.59,10.59,0,0,1,4.15-3.92,13.14,13.14,0,0,1,11.89,0,10.82,10.82,0,0,1,0,19.09,13.12,13.12,0,0,1-11.89,0Zm9.35-3.62a6.21,6.21,0,0,0,2.38-2.41,7.59,7.59,0,0,0,0-7,6.21,6.21,0,0,0-2.38-2.41,7.1,7.1,0,0,0-6.79,0,6.21,6.21,0,0,0-2.38,2.41,7.59,7.59,0,0,0,0,7,6.21,6.21,0,0,0,2.38,2.41,7.12,7.12,0,0,0,6.79,0Z" transform="translate(-0.56 0)" style="fill:#1d1d1b"/><path d="M416.66,386l-2.85,3v5.36h-4.88V373.1h4.88V383l9.4-9.91h5.45l-8.79,9.45,9.3,11.76h-5.73Z" transform="translate(-0.56 0)" style="fill:#1d1d1b"/><path d="M445.75,373.89a8.1,8.1,0,0,1,3.39,3.4,11.26,11.26,0,0,1,1.21,5.42v11.61h-4.91v-5.09h-9.7v5.09H430.9V382.71a11.26,11.26,0,0,1,1.21-5.42,8.08,8.08,0,0,1,3.39-3.4,12,12,0,0,1,10.24,0Zm-.3,11.4v-3a5.53,5.53,0,0,0-1.3-4,5.35,5.35,0,0,0-7.11,0,5.56,5.56,0,0,0-1.29,4v3Z" transform="translate(-0.56 0)" style="fill:#1d1d1b"/><path d="M470.36,379a16.24,16.24,0,0,0-5.85-2v17.3H459.6V377a16.54,16.54,0,0,0-5.88,2l-1.67-3.67a18.15,18.15,0,0,1,4.73-2,20.64,20.64,0,0,1,5.24-.67,20.94,20.94,0,0,1,5.29.67,17.63,17.63,0,0,1,4.71,2Z" transform="translate(-0.56 0)" style="fill:#1d1d1b"/><path d="M474.24,373.1h4.91v17.21h10.64v4H474.24Z" transform="translate(-0.56 0)" style="fill:#1d1d1b"/><path d="M499.82,377v13.33h3.67v3.94H491.21v-3.94h3.7V377h-3.7V373.1h12.27V377Z" transform="translate(-0.56 0)" style="fill:#1d1d1b"/><path d="M514.91,386l-2.85,3v5.36h-4.88V373.1h4.88V383l9.4-9.91h5.45l-8.79,9.45,9.31,11.76H521.7Z" transform="translate(-0.56 0)" style="fill:#1d1d1b"/><path d="M556.61,385.21a5.31,5.31,0,0,1,1,3.32,4.9,4.9,0,0,1-2.16,4.29,11.1,11.1,0,0,1-6.32,1.5h-11V373.1h10.36a10.14,10.14,0,0,1,6,1.49,4.7,4.7,0,0,1,2.08,4,5.16,5.16,0,0,1-.75,2.76,5.22,5.22,0,0,1-2.07,1.91A5.61,5.61,0,0,1,556.61,385.21Zm-13.55-8.41v5h4.88a4.94,4.94,0,0,0,2.76-.64,2.13,2.13,0,0,0,.94-1.88,2.09,2.09,0,0,0-.94-1.86,5,5,0,0,0-2.76-.62ZM551.72,390a2.18,2.18,0,0,0,1-2q0-2.64-3.91-2.64h-5.73v5.24h5.73A5.47,5.47,0,0,0,551.72,390Z" transform="translate(-0.56 0)" style="fill:#1d1d1b"/><path d="M580.3,373.1v14.58q0,4.79-2.66,7.35a10.19,10.19,0,0,1-7.36,2.56,15.6,15.6,0,0,1-4.94-.74,11.06,11.06,0,0,1-3.82-2.11l1.91-3.64a10.34,10.34,0,0,0,6.73,2.33,5.23,5.23,0,0,0,4-1.35,5.84,5.84,0,0,0,1.29-4.17v-1.3a7.3,7.3,0,0,1-6,2.6,8.13,8.13,0,0,1-6.2-2.29q-2.16-2.29-2.16-6.59V373.1h4.91V380a5.32,5.32,0,0,0,1.18,3.76,4.32,4.32,0,0,0,3.33,1.27,4.86,4.86,0,0,0,3.61-1.33,5.47,5.47,0,0,0,1.33-4V373.1Z" transform="translate(-0.56 0)" style="fill:#1d1d1b"/><path d="M604.13,373.1v21.21h-4.76v-2.58a8.46,8.46,0,0,1-12.29.56q-2.1-2.38-2.1-6.77V373.1h4.91v12.27a5.46,5.46,0,0,0,1.2,3.83,4.22,4.22,0,0,0,3.26,1.29,4.7,4.7,0,0,0,3.55-1.38,5.64,5.64,0,0,0,1.33-4.08V373.1Z" transform="translate(-0.56 0)" style="fill:#1d1d1b"/><path d="M622.68,394.32l-4.09-5.91h-4.52v5.91h-4.91V373.1h9.18a11.78,11.78,0,0,1,4.89.94,7.28,7.28,0,0,1,3.2,2.67,7.35,7.35,0,0,1,1.12,4.09,6.9,6.9,0,0,1-4.37,6.7l4.76,6.82Zm-1.25-16.26a5.15,5.15,0,0,0-3.36-1h-4v7.4h4a5.08,5.08,0,0,0,3.36-1,3.82,3.82,0,0,0,0-5.47Z" transform="translate(-0.56 0)" style="fill:#1d1d1b"/><path d="M635.75,393.26a10.58,10.58,0,0,1-4.15-3.92,11.3,11.3,0,0,1,0-11.25,10.61,10.61,0,0,1,4.15-3.92,13.15,13.15,0,0,1,11.9,0,10.82,10.82,0,0,1,0,19.09,13.13,13.13,0,0,1-11.9,0Zm9.35-3.62a6.23,6.23,0,0,0,2.38-2.41,7.61,7.61,0,0,0,0-7,6.23,6.23,0,0,0-2.38-2.41,7.1,7.1,0,0,0-6.79,0,6.2,6.2,0,0,0-2.38,2.41,7.57,7.57,0,0,0,0,7,6.2,6.2,0,0,0,2.38,2.41,7.11,7.11,0,0,0,6.79,0Z" transform="translate(-0.56 0)" style="fill:#1d1d1b"/><path d="M659.12,394a11.48,11.48,0,0,1-3.78-1.77l1.67-3.7a11.29,11.29,0,0,0,3.25,1.61,12.12,12.12,0,0,0,3.76.61,6,6,0,0,0,3.09-.62,1.87,1.87,0,0,0,1-1.65,1.58,1.58,0,0,0-.59-1.26,4.49,4.49,0,0,0-1.52-.8q-.92-.3-2.5-.67a34.59,34.59,0,0,1-4-1.15,6.45,6.45,0,0,1-2.65-1.85,5,5,0,0,1-1.11-3.39,5.92,5.92,0,0,1,1-3.35,6.71,6.71,0,0,1,3-2.38,12.3,12.3,0,0,1,4.92-.88,16.29,16.29,0,0,1,4,.48,11.71,11.71,0,0,1,3.4,1.4l-1.51,3.73a11.86,11.86,0,0,0-5.88-1.67,5.51,5.51,0,0,0-3,.67,2,2,0,0,0-1,1.76,1.72,1.72,0,0,0,1.14,1.62,18,18,0,0,0,3.47,1,34.53,34.53,0,0,1,4,1.15,6.64,6.64,0,0,1,2.65,1.82A4.88,4.88,0,0,1,673,388.1a5.8,5.8,0,0,1-1,3.32,6.81,6.81,0,0,1-3,2.38,12.41,12.41,0,0,1-4.94.88A17.38,17.38,0,0,1,659.12,394Z" transform="translate(-0.56 0)" style="fill:#1d1d1b"/><path d="M683.62,377v13.33h3.67v3.94H675v-3.94h3.7V377H675V373.1h12.27V377Z" transform="translate(-0.56 0)" style="fill:#1d1d1b"/></svg>